<svg width="266" height="261" viewBox="0 0 266 261" fill="none" xmlns="http://www.w3.org/2000/svg">
<g filter="url(#filter0_d_215_1707)">
<rect x="4" width="258" height="253" rx="7" fill="#214082"/>
<path d="M28.936 181.712C28.76 182.752 28.232 183.744 27.176 184.128C28.232 184.336 28.824 185.696 28.616 186.912C28.312 188.576 26.952 190 24.984 190H20.6L22.536 178.976H26.552C28.344 178.976 29.24 180.032 28.936 181.712ZM22.792 183.664H25.864C27.016 183.664 27.704 182.736 27.88 181.712C28.072 180.608 27.416 180.016 26.264 180.016H23.432L22.792 183.664ZM25.832 184.656H22.6L21.848 188.944H25.144C26.392 188.944 27.336 187.984 27.544 186.912C27.72 185.888 27.112 184.656 25.832 184.656ZM32.4735 178.976H33.5295L31.7695 188.944H36.4415L36.2655 190H30.5375L32.4735 178.976ZM42.0364 189.104C43.5724 189.104 45.0604 188 45.3644 186.272L46.6604 178.976H47.7164L46.4364 186.272C46.0204 188.64 43.9884 190.16 41.8444 190.16C39.7004 190.16 38.2284 188.64 38.6124 186.272L39.9084 178.976H40.9644L39.6684 186.272C39.3644 188 40.4844 189.104 42.0364 189.104ZM50.8016 178.976H57.0896L56.9136 180.032H51.6816L50.9616 184.064H55.5376L55.3456 185.12H50.7696L50.0976 188.944H55.5056L55.3296 190H48.8656L50.8016 178.976ZM30.696 194.976L28.76 206H27.704L28.584 201.024H22.536L21.656 206H20.6L22.536 194.976H23.592L22.696 200.032H28.744L29.64 194.976H30.696ZM33.8954 194.976H40.1834L40.0074 196.032H34.7754L34.0554 200.064H38.6314L38.4394 201.12H33.8634L33.1914 204.944H38.5994L38.4234 206H31.9594L33.8954 194.976ZM45.6969 200.064L48.5289 206H47.2329L44.8969 200.96L40.8009 206H39.5209L44.4169 200.064L41.8889 194.976H43.1849L45.2169 199.152L48.7369 194.976H50.0169L45.6969 200.064ZM62.568 197.792H64.36L63.896 198.784H62.104L60.552 202.208H62.344L61.896 203.2H60.104L58.856 206H57.864L59.112 203.2H56.808L55.56 206H54.584L55.832 203.2H54.072L54.52 202.208H56.28L57.816 198.784H56.072L56.52 197.792H58.28L59.544 194.976H60.536L59.272 197.792H61.576L62.84 194.976H63.832L62.568 197.792ZM58.808 198.784L57.256 202.208H59.56L61.112 198.784H58.808ZM64.524 205.632L69.932 200.24C70.572 199.616 71.02 198.976 71.148 198.272C71.356 197.072 70.508 196.288 69.292 196.288C68.156 196.288 67.084 196.912 66.748 198L65.804 197.744C66.364 196.192 67.836 195.232 69.484 195.232C71.308 195.232 72.508 196.48 72.204 198.272C72.028 199.296 71.388 200.224 70.572 200.992L66.524 204.944H71.036L70.86 206H64.476L64.524 205.632ZM74.3863 206L76.0182 196.736L74.0983 197.36L74.2743 196.4L77.3303 195.36L75.4423 206H74.3863ZM84.5505 203.728L84.1505 206H83.0945L83.4945 203.728H77.9265L85.2545 195.36H86.0385L84.7265 202.752H86.3265L86.1505 203.728H84.5505ZM80.0385 202.752H83.6705L84.5985 197.472L80.0385 202.752ZM88.4535 200.704C88.9655 197.696 90.2295 195.232 93.2375 195.232C96.2615 195.232 96.5335 197.696 96.0215 200.704C95.5095 203.728 94.2935 206.16 91.2855 206.16C88.2615 206.16 87.9415 203.712 88.4535 200.704ZM89.5095 200.704C89.0775 203.136 89.2855 205.104 91.4775 205.104C93.6695 205.104 94.5335 203.136 94.9655 200.704C95.3975 198.256 95.2375 196.288 93.0455 196.288C90.8535 196.288 89.9415 198.256 89.5095 200.704ZM99.4351 197.84C99.6911 196.4 101.099 195.232 102.635 195.232C104.203 195.232 105.179 196.4 104.923 197.84C104.779 198.656 104.267 199.36 103.611 199.824C104.571 200.416 105.115 201.504 104.875 202.768C104.523 204.656 102.715 206.16 100.683 206.16C98.6511 206.16 97.3391 204.656 97.6911 202.768C97.9311 201.504 98.8111 200.416 100.027 199.824C99.5151 199.36 99.2911 198.656 99.4351 197.84ZM98.7471 202.768C98.4911 204.064 99.4191 205.104 100.859 205.104C102.315 205.104 103.563 204.064 103.819 202.768C104.075 201.488 103.131 200.384 101.691 200.384L101.579 200.4C100.203 200.528 98.9711 201.52 98.7471 202.768ZM100.507 197.84C100.363 198.688 100.875 199.424 101.787 199.424L101.931 199.408C102.891 199.344 103.739 198.688 103.883 197.84C104.027 196.96 103.419 196.288 102.443 196.288C101.483 196.288 100.651 196.96 100.507 197.84ZM106.274 205.632L111.682 200.24C112.322 199.616 112.77 198.976 112.898 198.272C113.106 197.072 112.258 196.288 111.042 196.288C109.906 196.288 108.834 196.912 108.498 198L107.554 197.744C108.114 196.192 109.586 195.232 111.234 195.232C113.058 195.232 114.258 196.48 113.954 198.272C113.778 199.296 113.138 200.224 112.322 200.992L108.274 204.944H112.786L112.61 206H106.226L106.274 205.632ZM28.776 219.76L29.384 220.512C28.216 221.536 26.712 222.16 25.16 222.16C22.04 222.16 20.264 219.648 20.824 216.512C21.384 213.392 24.04 210.848 27.16 210.848C28.712 210.848 29.976 211.472 30.792 212.496L29.928 213.232C29.24 212.416 28.264 211.904 26.984 211.904C24.456 211.904 22.312 213.952 21.88 216.512C21.416 219.056 22.824 221.104 25.352 221.104C26.632 221.104 27.816 220.592 28.776 219.76ZM37.609 219.568L43.305 210.976H44.361L43.769 222H42.729L43.225 212.864L37.913 220.8H36.857L34.377 212.864L31.641 222H30.601L33.881 210.976H34.937L37.609 219.568ZM50.727 216.88L49.831 222H48.743L49.639 216.88L46.535 210.976H47.799L50.391 215.728L54.679 210.976H55.959L50.727 216.88ZM58.9548 216.496L63.2108 222H61.7868L57.7708 216.816L56.8748 222H55.8188L57.7548 210.976H58.8108L57.8668 216.336L62.9708 210.976H64.2188L58.9548 216.496ZM69.6988 222L71.3307 212.736L69.4108 213.36L69.5868 212.4L72.6428 211.36L70.7548 222H69.6988ZM74.391 216.704C74.903 213.696 76.167 211.232 79.175 211.232C82.199 211.232 82.471 213.696 81.959 216.704C81.447 219.728 80.231 222.16 77.223 222.16C74.199 222.16 73.879 219.712 74.391 216.704ZM75.447 216.704C75.015 219.136 75.223 221.104 77.415 221.104C79.607 221.104 80.471 219.136 80.903 216.704C81.335 214.256 81.175 212.288 78.983 212.288C76.791 212.288 75.879 214.256 75.447 216.704ZM84.1566 216.704C84.6686 213.696 85.9326 211.232 88.9406 211.232C91.9646 211.232 92.2366 213.696 91.7246 216.704C91.2126 219.728 89.9966 222.16 86.9886 222.16C83.9646 222.16 83.6446 219.712 84.1566 216.704ZM85.2126 216.704C84.7806 219.136 84.9886 221.104 87.1806 221.104C89.3726 221.104 90.2366 219.136 90.6686 216.704C91.1006 214.256 90.9406 212.288 88.7486 212.288C86.5566 212.288 85.6446 214.256 85.2126 216.704ZM100.914 210.976L93.5863 222H92.4183L99.7463 210.976H100.914ZM102.482 213.84C102.738 212.4 104.146 211.232 105.682 211.232C107.25 211.232 108.226 212.4 107.97 213.84C107.826 214.656 107.314 215.36 106.658 215.824C107.618 216.416 108.162 217.504 107.922 218.768C107.57 220.656 105.762 222.16 103.73 222.16C101.698 222.16 100.386 220.656 100.738 218.768C100.978 217.504 101.858 216.416 103.074 215.824C102.562 215.36 102.338 214.656 102.482 213.84ZM101.794 218.768C101.538 220.064 102.466 221.104 103.906 221.104C105.362 221.104 106.61 220.064 106.866 218.768C107.122 217.488 106.178 216.384 104.738 216.384L104.626 216.4C103.25 216.528 102.018 217.52 101.794 218.768ZM103.554 213.84C103.41 214.688 103.922 215.424 104.834 215.424L104.978 215.408C105.938 215.344 106.786 214.688 106.93 213.84C107.074 212.96 106.466 212.288 105.49 212.288C104.53 212.288 103.698 212.96 103.554 213.84ZM118.169 211.36L110.441 222H109.193L116.185 212.416H110.937L111.113 211.36H118.169ZM124.571 210.976L117.243 222H116.075L123.403 210.976H124.571ZM125.605 222L127.237 212.736L125.317 213.36L125.493 212.4L128.549 211.36L126.661 222H125.605ZM131.513 213.84C131.769 212.4 133.177 211.232 134.713 211.232C136.281 211.232 137.257 212.4 137.001 213.84C136.857 214.656 136.345 215.36 135.689 215.824C136.649 216.416 137.193 217.504 136.953 218.768C136.601 220.656 134.793 222.16 132.761 222.16C130.729 222.16 129.417 220.656 129.769 218.768C130.009 217.504 130.889 216.416 132.105 215.824C131.593 215.36 131.369 214.656 131.513 213.84ZM130.825 218.768C130.569 220.064 131.497 221.104 132.937 221.104C134.393 221.104 135.641 220.064 135.897 218.768C136.153 217.488 135.209 216.384 133.769 216.384L133.657 216.4C132.281 216.528 131.049 217.52 130.825 218.768ZM132.585 213.84C132.441 214.688 132.953 215.424 133.865 215.424L134.009 215.408C134.969 215.344 135.817 214.688 135.961 213.84C136.105 212.96 135.497 212.288 134.521 212.288C133.561 212.288 132.729 212.96 132.585 213.84ZM146.336 210.976L139.008 222H137.84L145.168 210.976H146.336ZM146.011 219.92L147.051 219.264C147.259 220.288 148.267 221.056 149.371 221.056C151.099 221.056 152.219 220 152.475 218.656C152.731 217.168 151.627 216.384 150.475 216.384C149.387 216.384 148.763 216.576 147.403 217.216L147.083 216.656L148.971 211.36H154.187L153.995 212.432H149.691L148.427 215.952C149.243 215.568 149.979 215.296 150.683 215.296C152.555 215.296 153.963 216.496 153.579 218.656C153.195 220.784 151.467 222.16 149.179 222.16C147.691 222.16 146.427 221.232 146.011 219.92Z" fill="white"/>
<path d="M20.28 33.8H23.8C26.648 33.8 27.8 35.016 27.8 37.64C27.8 40.264 26.648 41.48 23.8 41.48H23.032C22.728 41.48 22.552 41.64 22.552 41.96V44.52C22.552 44.84 22.392 45 22.072 45H20.28C19.976 45 19.8 44.824 19.8 44.52V34.296C19.8 33.976 19.96 33.816 20.28 33.8ZM23.032 38.728H23.896C24.664 38.728 25.048 38.632 25.048 37.64C25.048 36.648 24.664 36.552 23.896 36.552H23.032C22.728 36.552 22.552 36.712 22.552 37.032V38.248C22.552 38.552 22.728 38.728 23.032 38.728ZM35.5204 40.984L37.2164 44.136C37.4404 44.552 37.1844 45 36.6884 45H34.8644C34.7044 45 34.5604 44.92 34.4964 44.776L32.8324 41.56C32.8004 41.512 32.7524 41.48 32.7044 41.48H32.0644C31.7764 41.48 31.5684 41.688 31.5684 41.976V44.504C31.5684 44.792 31.3604 45 31.0724 45H29.2804C28.9924 45 28.7844 44.792 28.7844 44.504V34.296C28.7844 34.008 28.9924 33.8 29.2804 33.8H32.7844C35.6324 33.8 36.7844 35.016 36.7844 37.64C36.7844 39.128 36.4164 40.168 35.5684 40.776C35.5044 40.824 35.4884 40.904 35.5204 40.984ZM32.8804 36.552H32.0644C31.7764 36.552 31.5684 36.76 31.5684 37.048V38.232C31.5684 38.52 31.7764 38.728 32.0644 38.728H32.8804C33.6484 38.728 34.0324 38.632 34.0324 37.64C34.0324 36.648 33.6484 36.552 32.8804 36.552ZM40.5088 33.8C40.8288 33.8 40.9888 33.96 40.9888 34.28V44.52C40.9888 44.824 40.8288 45 40.5088 45H38.7488C38.4448 45 38.2688 44.824 38.2688 44.52V34.28C38.2688 33.96 38.4448 33.8 38.7488 33.8H40.5088ZM46.3733 33.8C46.6613 33.8 46.8213 33.96 46.8853 34.232L48.0213 38.888C48.0533 39.048 48.1813 39.048 48.2133 38.888L49.3493 34.232C49.4133 33.96 49.5733 33.8 49.8612 33.8H53.1733C53.4933 33.8 53.6533 33.96 53.6533 34.28V44.52C53.6533 44.824 53.4933 45 53.1733 45H51.3813C51.0773 45 50.9013 44.824 50.9013 44.52V38.216C50.9013 38.104 50.7573 38.088 50.7253 38.2L49.1733 44.584C49.1093 44.856 48.9333 45 48.6453 45H47.5893C47.3013 45 47.1253 44.856 47.0613 44.584L45.5093 38.2C45.4773 38.088 45.3333 38.104 45.3333 38.216V44.52C45.3333 44.824 45.1733 45 44.8533 45H43.0613C42.7413 45 42.5813 44.824 42.5813 44.52V34.28C42.5813 33.96 42.7413 33.8 43.0613 33.8H46.3733ZM63.0131 44.456C63.0131 44.808 62.8531 45 62.5331 45H60.7411C60.4371 45 60.2611 44.84 60.2611 44.52V43.128C60.2611 42.808 60.1011 42.648 59.7811 42.648H58.4051C58.1011 42.648 57.9251 42.808 57.9251 43.128V44.52C57.9251 44.84 57.7651 45 57.4451 45H55.6531C55.3491 45 55.1731 44.808 55.1731 44.456V37.672C55.1731 35.656 55.4931 33.512 59.0931 33.512C62.6931 33.512 63.0131 35.656 63.0131 37.672V44.456ZM60.2611 37.672C60.2611 36.904 60.1491 36.52 59.0931 36.52C58.0371 36.52 57.9251 36.904 57.9251 37.672V39.416C57.9251 39.72 58.1011 39.896 58.4051 39.896H59.7811C60.1011 39.88 60.2611 39.72 60.2611 39.4V37.672ZM71.2704 40.984L72.9664 44.136C73.1904 44.552 72.9344 45 72.4384 45H70.6144C70.4544 45 70.3104 44.92 70.2464 44.776L68.5824 41.56C68.5504 41.512 68.5024 41.48 68.4544 41.48H67.8144C67.5264 41.48 67.3184 41.688 67.3184 41.976V44.504C67.3184 44.792 67.1104 45 66.8224 45H65.0304C64.7424 45 64.5344 44.792 64.5344 44.504V34.296C64.5344 34.008 64.7424 33.8 65.0304 33.8H68.5344C71.3824 33.8 72.5344 35.016 72.5344 37.64C72.5344 39.128 72.1664 40.168 71.3184 40.776C71.2544 40.824 71.2384 40.904 71.2704 40.984ZM68.6304 36.552H67.8144C67.5264 36.552 67.3184 36.76 67.3184 37.048V38.232C67.3184 38.52 67.5264 38.728 67.8144 38.728H68.6304C69.3984 38.728 69.7824 38.632 69.7824 37.64C69.7824 36.648 69.3984 36.552 68.6304 36.552ZM75.3979 33.8C75.6699 33.8 75.8459 33.912 75.9419 34.168L77.1259 37.144C77.1899 37.288 77.2859 37.288 77.3499 37.144L78.5339 34.168C78.6299 33.912 78.8059 33.8 79.0779 33.8H81.3659C81.7339 33.8 81.8939 34.024 81.7339 34.36L78.8699 40.76C78.8379 40.824 78.8379 40.888 78.8379 40.952V44.52C78.8379 44.824 78.6779 45 78.3579 45H76.1179C75.8139 45 75.6379 44.824 75.6379 44.52V40.952C75.6379 40.888 75.6379 40.824 75.6059 40.76L72.7259 34.36C72.5659 34.024 72.7259 33.8 73.0939 33.8H75.3979Z" fill="white"/>
</g>
<defs>
<filter id="filter0_d_215_1707" x="0" y="0" width="266" height="261" filterUnits="userSpaceOnUse" color-interpolation-filters="sRGB">
<feFlood flood-opacity="0" result="BackgroundImageFix"/>
<feColorMatrix in="SourceAlpha" type="matrix" values="0 0 0 0 0 0 0 0 0 0 0 0 0 0 0 0 0 0 127 0" result="hardAlpha"/>
<feOffset dy="4"/>
<feGaussianBlur stdDeviation="2"/>
<feComposite in2="hardAlpha" operator="out"/>
<feColorMatrix type="matrix" values="0 0 0 0 0 0 0 0 0 0 0 0 0 0 0 0 0 0 0.25 0"/>
<feBlend mode="normal" in2="BackgroundImageFix" result="effect1_dropShadow_215_1707"/>
<feBlend mode="normal" in="SourceGraphic" in2="effect1_dropShadow_215_1707" result="shape"/>
</filter>
</defs>
</svg>
