<svg width="24" height="24" viewBox="0 0 24 24" fill="none" xmlns="http://www.w3.org/2000/svg">
<path d="M23.9592 2.63991C23.9553 2.16782 23.983 1.62097 23.7293 1.20002C23.65 1.06626 23.5509 0.940368 23.4399 0.834146C23.0158 0.42893 22.4093 0.287301 21.8424 0.212553C20.2567 0.00404343 18.6116 0.0748579 17.018 0.0355165C15.369 -0.00382486 13.7199 0.000109282 12.0708 0.000109282C10.5684 0.000109282 9.08976 0.118133 7.59132 0.122068C6.06116 0.129936 4.47948 0.0551872 2.95725 0.20075C2.31109 0.263696 1.60548 0.310906 1.12185 0.802673C0.634262 1.29837 0.547054 2.01439 0.424165 2.66352C0.241815 3.62738 0.253707 4.65026 0.154604 5.62986C0.0198235 6.99107 0 8.32081 0 9.68202C0 10.4059 0.0436061 11.114 0.0594626 11.8379C0.107032 13.7106 0.0911778 15.0954 0.0832495 16.7163C0.0753212 18.7895 -0.5193 23.2705 2.50137 23.5538C4.10288 23.7033 5.72421 23.7741 7.32969 23.8843C8.97084 23.9983 10.616 24.0101 12.2611 23.9944C13.8705 23.9787 15.4799 23.9275 17.0894 23.9157C18.564 23.9039 20.5184 23.9197 21.9732 23.6718C22.3181 23.6128 22.5401 23.538 22.774 23.2745C22.9841 23.0384 23.0752 22.7276 23.1743 22.4365C23.4043 21.752 23.428 21.0202 23.4637 20.3042C23.4994 19.5803 23.5707 18.8564 23.6223 18.1325C23.6778 17.3418 23.7848 16.5589 23.8245 15.7681C23.9751 12.8687 24.0068 9.96528 23.9989 7.07369C23.9989 5.3466 23.9751 4.38667 23.9513 2.63598L23.9592 2.63991ZM21.5332 6.21211C21.3072 6.25145 21.0852 6.27112 20.8553 6.26719C19.9674 6.25539 19.008 5.93279 18.3777 6.74715C18.1082 7.09729 17.9813 7.51431 17.8901 7.9392C17.795 8.38769 17.6602 8.87159 17.7197 9.33188C18.457 9.43023 19.2142 9.33582 19.9594 9.37909C20.1299 9.39089 20.5501 9.35549 20.6254 9.51679C20.6769 9.63481 20.5501 10.0046 20.5263 10.1305C20.4113 10.7639 20.118 11.3619 20.003 11.9953C19.9515 12.2864 19.8881 12.5736 19.8167 12.8608C19.7612 13.0732 19.7018 13.5375 19.5511 13.6988C19.3926 13.8679 18.8891 13.7775 18.6632 13.7617C18.3143 13.7342 17.9219 13.6555 17.577 13.683C17.5056 14.3597 17.5413 15.0718 17.5135 15.7563C17.4263 18.1207 16.8198 20.4616 16.8079 22.8299C16.6454 22.8181 16.467 22.8181 16.2966 22.8142C15.1351 22.7866 13.9379 22.6804 12.7804 22.7316C12.7804 22.0903 12.824 21.4608 12.8557 20.8235C12.9152 19.6629 12.8716 18.5024 12.9389 17.3418C12.9746 16.7517 12.9984 16.1655 13.0222 15.5714C13.046 14.9774 13.2283 14.3715 13.153 13.7775C12.5584 13.7106 11.94 13.7932 11.3414 13.7617C10.941 13.742 10.3068 13.8365 9.94998 13.6516C9.63682 13.4903 9.85484 12.731 9.87466 12.4005C9.90241 11.9245 10.0293 11.4799 10.1085 11.0078C10.1522 10.76 10.1918 10.5082 10.2195 10.2564C10.2592 9.89446 10.1918 9.61121 10.608 9.55219C11.2581 9.45777 11.9162 9.37516 12.5782 9.38303C12.8081 9.38303 13.038 9.38303 13.268 9.37516C13.6208 9.36729 13.6089 9.33188 13.6604 8.98961C13.7318 8.53325 13.8031 8.07296 13.922 7.6284C14.1282 6.84944 14.259 6.0036 14.5523 5.26398C14.8536 4.50076 15.4879 3.92638 16.0785 3.3638C16.7604 2.71466 17.4818 2.45108 18.3896 2.26617C19.2062 2.10094 20.2686 2.04586 21.0773 2.28584C21.22 2.32912 21.5609 2.3842 21.6561 2.49829C21.7591 2.62024 21.7036 2.92711 21.7076 3.0766C21.7274 3.55657 21.7591 4.02867 21.7552 4.51256C21.7552 4.96892 21.7552 5.42528 21.7552 5.88558C21.7552 5.89345 21.7552 5.89738 21.7552 5.90525C21.7552 6.14916 21.7671 6.16884 21.5253 6.21211H21.5332Z" fill="white"/>
</svg>
