<svg width="24" height="24" viewBox="0 0 24 24" fill="none" xmlns="http://www.w3.org/2000/svg">
<path d="M23.5299 1.21784C23.5299 1.21784 23.5143 1.19033 23.5064 1.1746C23.134 0.533843 22.3618 0.317637 21.6719 0.227223C20.7076 0.105361 19.7119 0.125016 18.7437 0.0974992C16.5643 0.0424648 14.3848 -0.0322247 12.2053 0.0149476C11.6957 0.0267407 11.1548 -0.0243627 10.653 0.0385338C10.4923 0.561361 10.461 1.24536 10.3826 1.7957C10.3002 2.37356 10.2806 2.95143 10.0886 3.50963C9.97488 3.83984 9.99056 3.81232 9.70049 3.81625C9.57897 3.81625 9.07722 3.89487 8.97923 3.82411C8.76755 3.66687 8.95571 2.56225 8.95571 2.27136C8.95179 1.55198 9.1517 0.82474 9.12818 0.109292C8.92435 0.105361 7.94045 0.0817751 7.80325 0.21543C7.66606 0.349085 7.67389 1.19033 7.6347 1.41832C7.49358 2.23991 7.52494 3.08901 7.28582 3.90273C7.19175 4.21722 7.16823 4.70466 6.98791 4.97984C6.80759 5.25501 6.23529 5.26287 5.92953 5.16853C5.58458 5.06239 5.72178 4.69287 5.75314 4.37053C5.79626 3.94205 5.81978 3.50963 5.87466 3.07722C5.93345 2.60943 6.05105 2.14557 6.11377 1.67777C6.16865 1.27288 6.36072 0.738257 6.29801 0.341223C5.92561 0.341223 5.33763 0.356947 4.98876 0.502395C4.74572 0.604602 4.75356 0.600671 4.71044 0.90336C4.683 1.10777 4.7026 1.30039 4.68692 1.50088C4.6242 2.2517 4.41253 2.99467 4.33021 3.74549C4.25573 4.41377 4.31061 5.36508 3.44823 5.3297C3.02488 5.31004 2.94256 5.28646 2.9504 4.85404C2.95824 4.42163 3.0092 4.02067 3.04448 3.60398C3.11504 2.69984 3.47175 1.79963 3.49135 0.899429C1.18252 1.40653 0.378941 4.35087 0.104547 6.3557C0.0222288 6.94928 -0.0914487 8.66321 0.124146 8.66321C0.676854 8.66321 1.46476 8.71431 1.97826 8.66321C3.03272 8.55314 4.08718 8.46666 5.14163 8.38018C5.6669 8.33694 6.19217 8.30549 6.71744 8.27404C7.12903 8.25045 7.22703 8.219 7.41126 7.83376C7.77189 7.07114 7.97181 6.2417 8.72443 5.75818C9.43394 5.30218 10.3159 5.23535 11.1352 5.22749C12.8443 5.2157 14.7101 5.32184 15.745 6.90211C16.0743 7.40135 16.2075 8.16004 16.6975 8.53349C17.309 9.00128 18.583 8.69859 19.2964 8.65928C20.3156 8.60031 21.3348 8.6239 22.354 8.53349C22.6323 8.5099 23.1889 8.5728 23.428 8.3959C23.7181 8.17969 23.7416 7.52714 23.7886 7.20087C23.9376 6.16308 23.9807 5.09384 23.9964 4.04425C24.0121 3.11653 23.9964 2.05908 23.526 1.2257L23.5299 1.21784ZM21.9933 4.09142C21.9933 4.1386 21.9855 4.18577 21.9855 4.23687C21.962 4.61032 22.0325 5.25108 21.6719 5.49087C21.2603 5.75818 20.6174 5.68742 20.1627 5.70315C19.269 5.73459 18.1401 5.94687 17.8382 5.25501C17.6383 4.79901 17.7912 4.01673 17.7912 3.52143C17.7912 3.08115 17.6932 2.33819 17.9833 1.96867C18.3204 1.53626 19.1788 1.68957 19.6531 1.68957C20.0451 1.68957 20.4332 1.6935 20.8252 1.71315C21.6092 1.74853 22.0835 1.6817 22.0717 2.62122C22.0678 3.09294 22.0247 3.60398 21.9933 4.09536V4.09142Z" fill="white"/>
<path d="M23.4282 9.79938C23.2322 9.51241 22.703 9.65393 22.3267 9.69717C21.0567 9.83476 19.771 9.92517 18.4931 9.97628C18.1128 9.992 17.2191 9.8269 16.9094 10.0981C16.6507 10.3222 16.8036 11.0023 16.7761 11.3207C16.6899 12.3034 16.3371 13.2744 15.5022 13.8523C14.6633 14.4341 13.5736 14.6385 12.5662 14.6503C11.4294 14.6621 10.2416 14.497 9.25775 13.8876C8.34833 13.3255 7.79562 12.3624 7.38795 11.3954C7.22332 11.0062 7.12924 10.5974 7.0626 10.1807C7.01164 9.87014 7.07436 9.90552 6.81173 9.87014C6.38838 9.81117 5.88663 9.86621 5.45152 9.84262C4.93017 9.8151 4.4049 9.84262 3.88355 9.84262C3.28773 9.84262 2.66054 9.8151 2.06472 9.80331C1.54729 9.79152 0.728026 9.89766 0.187078 9.89766C0.065561 9.89766 0.065561 10.3615 0.0890805 11.0062C0.10868 11.529 0.167479 12.044 0.171399 12.5668C0.187078 13.8837 0.155719 15.2006 0.163559 16.5136C0.167479 17.5514 0.10476 18.5931 0.155719 19.6309C0.198838 20.5429 0.339955 21.4981 0.739786 22.3276C1.15922 23.1924 1.7276 23.5029 2.66838 23.5658C3.31909 23.6091 3.96587 23.6327 4.61658 23.6759C5.93759 23.7663 7.2586 23.9039 8.58353 23.955C11.202 24.0533 13.8401 23.9668 16.4586 23.9236C17.5758 23.9039 18.6812 23.7663 19.7984 23.7349C20.6373 23.7113 21.7035 23.6405 22.1895 22.8347C22.4757 22.3629 22.511 21.7536 22.6207 21.2229C22.997 19.399 22.9892 17.5946 23.1578 15.747C23.2714 14.4616 23.3459 13.1683 23.4557 11.8789C23.5066 11.2814 23.5733 10.6013 23.5027 10.0038C23.4909 9.91731 23.4674 9.85048 23.4321 9.79545L23.4282 9.79938Z" fill="white"/>
</svg>
