<svg width="268" height="261" viewBox="0 0 268 261" fill="none" xmlns="http://www.w3.org/2000/svg">
<g filter="url(#filter0_d_215_1708)">
<rect x="4" width="260" height="253" rx="7" fill="#DEBDDB"/>
<path d="M22.536 178.976H23.592L21.832 188.944H26.504L26.328 190H20.6L22.536 178.976ZM28.2369 190H27.1009L33.2769 178.976H34.3969L36.7009 190H35.5649L34.9409 187.104H29.8369L28.2369 190ZM34.7489 186.112L33.5809 180.448L30.3969 186.112H34.7489ZM40.0055 178.976L41.1255 188.272L45.5415 178.976H46.6295L41.3975 190H40.2935L38.9175 178.976H40.0055ZM48.786 178.976H55.074L54.898 180.032H49.666L48.946 184.064H53.522L53.33 185.12H48.754L48.082 188.944H53.49L53.314 190H46.85L48.786 178.976ZM63.5475 190H62.4595L58.4595 180.768L56.8435 190H55.7875L57.7235 178.976H58.8595L62.7955 188.144L64.4275 178.976H65.4835L63.5475 190ZM70.8846 190H66.7406L68.6766 178.976H72.8206C75.9246 178.976 77.2846 181.376 76.7246 184.512C76.1646 187.648 74.0046 190 70.8846 190ZM69.5566 180.032L67.9726 188.944H71.0606C73.6366 188.944 75.2046 187.056 75.6686 184.512C76.1006 181.968 75.2046 180.032 72.6446 180.032H69.5566ZM80.2235 178.976H86.5115L86.3355 180.032H81.1035L80.3835 184.064H84.9595L84.7675 185.12H80.1915L79.5195 188.944H84.9275L84.7515 190H78.2875L80.2235 178.976ZM92.201 185.696L94.489 190H93.193L90.905 185.696H89.049L88.297 190H87.225L89.161 178.976H93.257C95.497 178.976 96.025 180.64 95.721 182.352C95.417 184 94.377 185.648 92.201 185.696ZM93.081 180.032H90.057L89.241 184.64H92.185C93.737 184.64 94.441 183.52 94.665 182.352C94.889 181.184 94.553 180.032 93.081 180.032ZM30.696 194.976L28.76 206H27.704L28.584 201.024H22.536L21.656 206H20.6L22.536 194.976H23.592L22.696 200.032H28.744L29.64 194.976H30.696ZM33.8954 194.976H40.1834L40.0074 196.032H34.7754L34.0554 200.064H38.6314L38.4394 201.12H33.8634L33.1914 204.944H38.5994L38.4234 206H31.9594L33.8954 194.976ZM45.6969 200.064L48.5289 206H47.2329L44.8969 200.96L40.8009 206H39.5209L44.4169 200.064L41.8889 194.976H43.1849L45.2169 199.152L48.7369 194.976H50.0169L45.6969 200.064ZM62.568 197.792H64.36L63.896 198.784H62.104L60.552 202.208H62.344L61.896 203.2H60.104L58.856 206H57.864L59.112 203.2H56.808L55.56 206H54.584L55.832 203.2H54.072L54.52 202.208H56.28L57.816 198.784H56.072L56.52 197.792H58.28L59.544 194.976H60.536L59.272 197.792H61.576L62.84 194.976H63.832L62.568 197.792ZM58.808 198.784L57.256 202.208H59.56L61.112 198.784H58.808ZM74.028 194.48L71.996 206H70.924L71.132 204.72C70.412 205.664 69.148 206.16 68.06 206.16C65.932 206.16 64.508 204.608 64.924 202.24C65.356 199.872 67.308 198.368 69.436 198.368C70.508 198.368 71.628 198.816 72.012 199.76L72.956 194.48H74.028ZM65.996 202.24C65.692 203.904 66.716 205.088 68.268 205.088C69.804 205.088 71.212 204.096 71.564 202.24C71.916 200.384 70.588 199.44 69.244 199.44C67.692 199.44 66.3 200.528 65.996 202.24ZM82.5929 197.024L81.5689 197.424C81.3129 196.576 80.6569 196.336 79.9049 196.288C77.8409 196.208 76.8009 198.384 76.4649 200.608C77.0249 199.664 78.2889 199.248 79.2329 199.296C81.0889 199.376 82.2409 200.992 81.8089 202.864C81.3929 204.768 79.6329 206.24 77.7449 206.16C75.9049 206.08 74.8649 204.752 75.0729 202.576C75.2809 200.96 75.5209 199.744 75.9689 198.416C76.6249 196.512 78.2249 195.184 80.1449 195.232C81.2649 195.28 82.2089 195.632 82.5929 197.024ZM76.1289 202.624C75.8729 204.016 76.6729 205.04 77.9849 205.088C79.2649 205.136 80.4649 204.144 80.7689 202.816C81.0729 201.488 80.3049 200.416 78.9929 200.368C77.7129 200.32 76.3849 201.28 76.1289 202.624ZM83.4835 206L85.5155 194.48H86.5875L85.6435 199.76C86.3635 198.816 87.6275 198.368 88.7155 198.368C90.8435 198.368 92.2675 199.872 91.8355 202.24C91.4195 204.608 89.4515 206.16 87.3235 206.16C86.2355 206.16 85.1635 205.68 84.7795 204.72L84.5555 206H83.4835ZM90.7635 202.24C91.0675 200.528 90.0755 199.44 88.5235 199.44C87.1795 199.44 85.5475 200.384 85.1955 202.24C84.8595 204.096 86.0275 205.088 87.5315 205.088C89.0675 205.088 90.4595 203.904 90.7635 202.24ZM95.6644 197.248L94.9124 196.72C95.6644 195.744 96.8964 195.136 98.1764 195.216C100.16 195.344 100.912 196.736 100.496 198.24C100.256 199.088 99.5204 199.904 98.6244 200.272C99.8084 200.576 100.32 202 100.016 203.216C99.5364 204.976 97.6324 206.272 95.7124 206.144C94.3524 206.032 93.3284 205.264 93.0564 204.176L94.0804 203.744C94.2724 204.464 94.9764 205.008 95.9844 205.088H95.9684C97.2964 205.168 98.7044 204.272 98.9924 203.056C99.2484 201.856 98.3044 200.816 96.9924 200.816H95.9684L96.1604 199.808H97.1844C98.2564 199.808 99.2324 199.04 99.4404 198.08C99.6484 197.12 99.1844 196.368 97.9204 196.288C97.0244 196.24 96.1604 196.624 95.6644 197.248ZM111.075 194.48L109.043 206H107.971L108.179 204.72C107.459 205.664 106.195 206.16 105.107 206.16C102.979 206.16 101.555 204.608 101.971 202.24C102.403 199.872 104.355 198.368 106.483 198.368C107.555 198.368 108.675 198.816 109.059 199.76L110.003 194.48H111.075ZM103.043 202.24C102.739 203.904 103.763 205.088 105.315 205.088C106.851 205.088 108.259 204.096 108.611 202.24C108.963 200.384 107.635 199.44 106.291 199.44C104.739 199.44 103.347 200.528 103.043 202.24ZM111.464 203.92L112.504 203.264C112.712 204.288 113.72 205.056 114.824 205.056C116.552 205.056 117.672 204 117.928 202.656C118.184 201.168 117.08 200.384 115.928 200.384C114.84 200.384 114.216 200.576 112.856 201.216L112.536 200.656L114.424 195.36H119.64L119.448 196.432H115.144L113.88 199.952C114.696 199.568 115.432 199.296 116.136 199.296C118.008 199.296 119.416 200.496 119.032 202.656C118.648 204.784 116.92 206.16 114.632 206.16C113.144 206.16 111.88 205.232 111.464 203.92ZM28.776 219.76L29.384 220.512C28.216 221.536 26.712 222.16 25.16 222.16C22.04 222.16 20.264 219.648 20.824 216.512C21.384 213.392 24.04 210.848 27.16 210.848C28.712 210.848 29.976 211.472 30.792 212.496L29.928 213.232C29.24 212.416 28.264 211.904 26.984 211.904C24.456 211.904 22.312 213.952 21.88 216.512C21.416 219.056 22.824 221.104 25.352 221.104C26.632 221.104 27.816 220.592 28.776 219.76ZM37.609 219.568L43.305 210.976H44.361L43.769 222H42.729L43.225 212.864L37.913 220.8H36.857L34.377 212.864L31.641 222H30.601L33.881 210.976H34.937L37.609 219.568ZM50.727 216.88L49.831 222H48.743L49.639 216.88L46.535 210.976H47.799L50.391 215.728L54.679 210.976H55.959L50.727 216.88ZM58.9548 216.496L63.2108 222H61.7868L57.7708 216.816L56.8748 222H55.8188L57.7548 210.976H58.8108L57.8668 216.336L62.9708 210.976H64.2188L58.9548 216.496ZM69.6988 222L71.3307 212.736L69.4108 213.36L69.5868 212.4L72.6428 211.36L70.7548 222H69.6988ZM76.055 213.248L75.303 212.72C76.055 211.744 77.287 211.136 78.567 211.216C80.551 211.344 81.303 212.736 80.887 214.24C80.647 215.088 79.911 215.904 79.015 216.272C80.199 216.576 80.711 218 80.407 219.216C79.927 220.976 78.023 222.272 76.103 222.144C74.743 222.032 73.719 221.264 73.447 220.176L74.471 219.744C74.663 220.464 75.367 221.008 76.375 221.088H76.359C77.687 221.168 79.095 220.272 79.383 219.056C79.639 217.856 78.695 216.816 77.383 216.816H76.359L76.551 215.808H77.575C78.647 215.808 79.623 215.04 79.831 214.08C80.039 213.12 79.575 212.368 78.311 212.288C77.415 212.24 76.551 212.624 76.055 213.248ZM89.9455 210.976L82.6175 222H81.4495L88.7775 210.976H89.9455ZM92.18 213.248L91.428 212.72C92.18 211.744 93.412 211.136 94.692 211.216C96.676 211.344 97.428 212.736 97.012 214.24C96.772 215.088 96.036 215.904 95.14 216.272C96.324 216.576 96.836 218 96.532 219.216C96.052 220.976 94.148 222.272 92.228 222.144C90.868 222.032 89.844 221.264 89.572 220.176L90.596 219.744C90.788 220.464 91.492 221.008 92.5 221.088H92.484C93.812 221.168 95.22 220.272 95.508 219.056C95.764 217.856 94.82 216.816 93.508 216.816H92.484L92.676 215.808H93.7C94.772 215.808 95.748 215.04 95.956 214.08C96.164 213.12 95.7 212.368 94.436 212.288C93.54 212.24 92.676 212.624 92.18 213.248ZM98.0865 221.632L103.495 216.24C104.135 215.616 104.583 214.976 104.711 214.272C104.919 213.072 104.071 212.288 102.855 212.288C101.719 212.288 100.647 212.912 100.311 214L99.3665 213.744C99.9265 212.192 101.399 211.232 103.047 211.232C104.871 211.232 106.071 212.48 105.767 214.272C105.591 215.296 104.951 216.224 104.135 216.992L100.087 220.944H104.599L104.423 222H98.0385L98.0865 221.632ZM114.477 210.976L107.149 222H105.981L113.309 210.976H114.477ZM115.047 216.704C115.559 213.696 116.823 211.232 119.831 211.232C122.855 211.232 123.127 213.696 122.615 216.704C122.103 219.728 120.887 222.16 117.879 222.16C114.855 222.16 114.535 219.712 115.047 216.704ZM116.103 216.704C115.671 219.136 115.879 221.104 118.071 221.104C120.263 221.104 121.127 219.136 121.559 216.704C121.991 214.256 121.831 212.288 119.639 212.288C117.447 212.288 116.535 214.256 116.103 216.704ZM131.805 210.976L124.477 222H123.309L130.637 210.976H131.805ZM132.375 216.704C132.887 213.696 134.151 211.232 137.159 211.232C140.183 211.232 140.455 213.696 139.943 216.704C139.431 219.728 138.215 222.16 135.207 222.16C132.183 222.16 131.863 219.712 132.375 216.704ZM133.431 216.704C132.999 219.136 133.207 221.104 135.399 221.104C137.591 221.104 138.455 219.136 138.887 216.704C139.319 214.256 139.159 212.288 136.967 212.288C134.775 212.288 133.863 214.256 133.431 216.704Z" fill="white"/>
<path d="M27.208 37.368L25.384 37.768C25.064 37.832 24.904 37.688 24.856 37.368C24.744 36.712 24.216 36.296 23.464 36.296C22.84 36.296 22.456 36.664 22.52 37.032C22.744 38.28 27.8 38.248 27.8 41.928C27.8 42.408 27.256 45.24 23.464 45.24C20.104 45.24 19.384 43.032 19.304 41.784C19.288 41.496 19.432 41.32 19.72 41.256L21.528 40.856C21.848 40.792 22.024 40.936 22.056 41.272C22.12 42.04 22.712 42.488 23.464 42.488C24.248 42.488 24.824 42.024 24.728 41.592C24.424 40.232 19.608 40.536 19.608 36.856C19.592 36.376 19.88 33.544 23.464 33.544C26.76 33.544 27.528 35.688 27.624 36.84C27.64 37.128 27.496 37.304 27.208 37.368ZM36.1562 33.8C36.4763 33.8 36.6363 33.96 36.6363 34.28V36.072C36.6363 36.376 36.4763 36.552 36.1562 36.552H32.2843C31.9803 36.552 31.8043 36.712 31.8043 37.032V37.544C31.8043 37.848 31.9803 38.024 32.2843 38.024H34.7643C35.0843 38.024 35.2443 38.184 35.2443 38.504V40.296C35.2443 40.6 35.0843 40.776 34.7643 40.776H32.2843C31.9803 40.776 31.8043 40.936 31.8043 41.256V41.768C31.8043 42.072 31.9803 42.248 32.2843 42.248H36.1562C36.4763 42.248 36.6363 42.408 36.6363 42.728V44.52C36.6363 44.84 36.4763 45 36.1562 45H29.4363C29.1323 45 28.9563 44.824 28.9563 44.52V34.28C28.9563 33.96 29.1323 33.8 29.4363 33.8H36.1562ZM37.7025 41.4V37.4C37.7025 36.344 37.9265 33.512 41.7185 33.512C45.1265 33.512 45.6545 35.8 45.7185 37.032C45.7345 37.256 45.5905 37.432 45.3665 37.48L43.5905 37.88C43.2545 37.944 42.9985 37.72 42.9505 37.384C42.8705 36.68 42.5825 36.264 41.7185 36.264C40.5345 36.264 40.4545 37.016 40.4545 38.248V40.552C40.4545 41.784 40.5345 42.536 41.7185 42.536C42.5985 42.536 42.8385 42.12 42.9345 41.384C42.9825 41.048 43.2385 40.84 43.5585 40.92L45.3665 41.32C45.5905 41.368 45.7345 41.544 45.7185 41.784C45.6545 43 45.1265 45.288 41.7185 45.288C37.9265 45.288 37.7025 42.456 37.7025 41.4ZM54.6876 37.4V41.4C54.6876 42.456 54.4636 45.288 50.6716 45.288C46.8796 45.288 46.6556 42.456 46.6556 41.4V37.4C46.6556 36.344 46.8796 33.512 50.6716 33.512C54.4636 33.512 54.6876 36.344 54.6876 37.4ZM51.9356 40.552V38.248C51.9356 37.016 51.8556 36.264 50.6716 36.264C49.4876 36.264 49.4076 37.016 49.4076 38.248V40.552C49.4076 41.784 49.4876 42.536 50.6716 42.536C51.8556 42.536 51.9356 41.784 51.9356 40.552ZM58.9601 33.8C59.2321 33.8 59.4081 33.912 59.5201 34.168L61.6961 39.496C61.7601 39.64 61.8881 39.608 61.8881 39.448V34.28C61.8881 33.96 62.0641 33.8 62.3681 33.8H64.1601C64.4801 33.8 64.6401 33.96 64.6401 34.28V44.52C64.6401 44.824 64.4801 45 64.1601 45H61.8081C61.5361 45 61.3601 44.888 61.2481 44.632L59.0721 39.304C59.0081 39.16 58.8801 39.192 58.8801 39.352V44.52C58.8801 44.824 58.7201 45 58.4001 45H56.6081C56.3041 45 56.1281 44.824 56.1281 44.52V34.28C56.1281 33.96 56.3041 33.8 56.6081 33.8H58.9601ZM66.7175 33.8H70.2855C73.2935 33.8 74.2855 35.016 74.2855 37.64V41.144C74.2855 43.768 73.2935 45 70.2855 45H66.7175C66.4135 45 66.2375 44.824 66.2375 44.52V34.296C66.2375 33.976 66.3975 33.816 66.7175 33.8ZM69.4695 42.248H70.3335C71.1015 42.248 71.4855 42.12 71.4855 41.16C71.4855 41.144 71.4855 37.656 71.4855 37.64C71.4855 36.648 71.1015 36.552 70.3335 36.552H69.4695C69.1655 36.552 68.9895 36.712 68.9895 37.032V41.768C68.9895 42.072 69.1655 42.248 69.4695 42.248ZM83.4819 44.456C83.4819 44.808 83.3219 45 83.0019 45H81.2099C80.9059 45 80.7299 44.84 80.7299 44.52V43.128C80.7299 42.808 80.5699 42.648 80.2499 42.648H78.8739C78.5699 42.648 78.3939 42.808 78.3939 43.128V44.52C78.3939 44.84 78.2339 45 77.9139 45H76.1219C75.8179 45 75.6419 44.808 75.6419 44.456V37.672C75.6419 35.656 75.9619 33.512 79.5619 33.512C83.1619 33.512 83.4819 35.656 83.4819 37.672V44.456ZM80.7299 37.672C80.7299 36.904 80.6179 36.52 79.5619 36.52C78.5059 36.52 78.3939 36.904 78.3939 37.672V39.416C78.3939 39.72 78.5699 39.896 78.8739 39.896H80.2499C80.5699 39.88 80.7299 39.72 80.7299 39.4V37.672ZM91.7391 40.984L93.4351 44.136C93.6591 44.552 93.4031 45 92.9071 45H91.0831C90.9231 45 90.7791 44.92 90.7151 44.776L89.0511 41.56C89.0191 41.512 88.9711 41.48 88.9231 41.48H88.2831C87.9951 41.48 87.7871 41.688 87.7871 41.976V44.504C87.7871 44.792 87.5791 45 87.2911 45H85.4991C85.2111 45 85.0031 44.792 85.0031 44.504V34.296C85.0031 34.008 85.2111 33.8 85.4991 33.8H89.0031C91.8511 33.8 93.0031 35.016 93.0031 37.64C93.0031 39.128 92.6351 40.168 91.7871 40.776C91.7231 40.824 91.7071 40.904 91.7391 40.984ZM89.0991 36.552H88.2831C87.9951 36.552 87.7871 36.76 87.7871 37.048V38.232C87.7871 38.52 87.9951 38.728 88.2831 38.728H89.0991C89.8671 38.728 90.2511 38.632 90.2511 37.64C90.2511 36.648 89.8671 36.552 89.0991 36.552ZM95.8666 33.8C96.1386 33.8 96.3146 33.912 96.4106 34.168L97.5946 37.144C97.6586 37.288 97.7546 37.288 97.8186 37.144L99.0026 34.168C99.0986 33.912 99.2746 33.8 99.5466 33.8H101.835C102.203 33.8 102.363 34.024 102.203 34.36L99.3386 40.76C99.3066 40.824 99.3066 40.888 99.3066 40.952V44.52C99.3066 44.824 99.1466 45 98.8266 45H96.5866C96.2826 45 96.1066 44.824 96.1066 44.52V40.952C96.1066 40.888 96.1066 40.824 96.0746 40.76L93.1946 34.36C93.0346 34.024 93.1946 33.8 93.5626 33.8H95.8666Z" fill="white"/>
</g>
<defs>
<filter id="filter0_d_215_1708" x="0" y="0" width="268" height="261" filterUnits="userSpaceOnUse" color-interpolation-filters="sRGB">
<feFlood flood-opacity="0" result="BackgroundImageFix"/>
<feColorMatrix in="SourceAlpha" type="matrix" values="0 0 0 0 0 0 0 0 0 0 0 0 0 0 0 0 0 0 127 0" result="hardAlpha"/>
<feOffset dy="4"/>
<feGaussianBlur stdDeviation="2"/>
<feComposite in2="hardAlpha" operator="out"/>
<feColorMatrix type="matrix" values="0 0 0 0 0 0 0 0 0 0 0 0 0 0 0 0 0 0 0.25 0"/>
<feBlend mode="normal" in2="BackgroundImageFix" result="effect1_dropShadow_215_1708"/>
<feBlend mode="normal" in="SourceGraphic" in2="effect1_dropShadow_215_1708" result="shape"/>
</filter>
</defs>
</svg>
