<svg width="266" height="261" viewBox="0 0 266 261" fill="none" xmlns="http://www.w3.org/2000/svg">
<g filter="url(#filter0_d_215_1709)">
<rect x="4" width="258" height="253" rx="7" fill="#BADEB9"/>
<path d="M22.536 178.976H23.592L21.832 188.944H26.504L26.328 190H20.6L22.536 178.976ZM31.3889 178.976L29.4529 190H28.3969L30.3329 178.976H31.3889ZM39.1109 184.592H43.5109C42.8709 188.336 40.5349 190.16 37.3989 190.16C34.2629 190.16 32.3109 187.648 32.8709 184.512C33.4309 181.392 36.2789 178.848 39.3989 178.848C40.7429 178.848 41.8789 179.312 42.7109 180.128L41.8309 180.88C41.1749 180.256 40.2949 179.904 39.2229 179.904C36.6949 179.904 34.3589 181.952 33.9269 184.512C33.4629 187.056 35.0629 189.104 37.5909 189.104C39.9749 189.104 41.6229 187.776 42.1509 185.584H38.9349L39.1109 184.592ZM54.8366 178.976L52.9006 190H51.8446L52.7246 185.024H46.6766L45.7966 190H44.7406L46.6766 178.976H47.7326L46.8366 184.032H52.8846L53.7806 178.976H54.8366ZM56.9 178.976H65.028L64.852 180.032H61.316L59.556 190H58.5L60.26 180.032H56.724L56.9 178.976ZM75.4078 184.592H79.8078C79.1678 188.336 76.8318 190.16 73.6958 190.16C70.5598 190.16 68.6078 187.648 69.1678 184.512C69.7278 181.392 72.5758 178.848 75.6958 178.848C77.0398 178.848 78.1758 179.312 79.0078 180.128L78.1278 180.88C77.4718 180.256 76.5918 179.904 75.5198 179.904C72.9918 179.904 70.6558 181.952 70.2238 184.512C69.7598 187.056 71.3598 189.104 73.8878 189.104C76.2718 189.104 77.9198 187.776 78.4478 185.584H75.2318L75.4078 184.592ZM86.0135 185.696L88.3015 190H87.0055L84.7175 185.696H82.8615L82.1095 190H81.0375L82.9735 178.976H87.0695C89.3095 178.976 89.8375 180.64 89.5335 182.352C89.2295 184 88.1895 185.648 86.0135 185.696ZM86.8935 180.032H83.8695L83.0535 184.64H85.9975C87.5495 184.64 88.2535 183.52 88.4775 182.352C88.7015 181.184 88.3655 180.032 86.8935 180.032ZM92.7079 178.976H98.9959L98.8199 180.032H93.5879L92.8679 184.064H97.4439L97.2519 185.12H92.6759L92.0039 188.944H97.4119L97.2359 190H90.7719L92.7079 178.976ZM101.645 178.976H107.933L107.757 180.032H102.525L101.805 184.064H106.381L106.189 185.12H101.613L100.941 188.944H106.349L106.173 190H99.7094L101.645 178.976ZM116.407 190H115.319L111.319 180.768L109.703 190H108.647L110.583 178.976H111.719L115.655 188.144L117.287 178.976H118.343L116.407 190ZM30.696 194.976L28.76 206H27.704L28.584 201.024H22.536L21.656 206H20.6L22.536 194.976H23.592L22.696 200.032H28.744L29.64 194.976H30.696ZM33.8954 194.976H40.1834L40.0074 196.032H34.7754L34.0554 200.064H38.6314L38.4394 201.12H33.8634L33.1914 204.944H38.5994L38.4234 206H31.9594L33.8954 194.976ZM45.6969 200.064L48.5289 206H47.2329L44.8969 200.96L40.8009 206H39.5209L44.4169 200.064L41.8889 194.976H43.1849L45.2169 199.152L48.7369 194.976H50.0169L45.6969 200.064ZM62.568 197.792H64.36L63.896 198.784H62.104L60.552 202.208H62.344L61.896 203.2H60.104L58.856 206H57.864L59.112 203.2H56.808L55.56 206H54.584L55.832 203.2H54.072L54.52 202.208H56.28L57.816 198.784H56.072L56.52 197.792H58.28L59.544 194.976H60.536L59.272 197.792H61.576L62.84 194.976H63.832L62.568 197.792ZM58.808 198.784L57.256 202.208H59.56L61.112 198.784H58.808ZM64.796 206L66.828 194.48H67.9L66.956 199.76C67.676 198.816 68.94 198.368 70.028 198.368C72.156 198.368 73.58 199.872 73.148 202.24C72.732 204.608 70.764 206.16 68.636 206.16C67.548 206.16 66.476 205.68 66.092 204.72L65.868 206H64.796ZM72.076 202.24C72.38 200.528 71.388 199.44 69.836 199.44C68.492 199.44 66.86 200.384 66.508 202.24C66.172 204.096 67.34 205.088 68.844 205.088C70.38 205.088 71.772 203.904 72.076 202.24ZM83.0889 198.528L81.7929 206H80.7209L80.9289 204.72C80.2089 205.664 78.9449 206.16 77.8569 206.16C75.7289 206.16 74.3049 204.608 74.7209 202.24C75.1529 199.872 77.1049 198.368 79.2329 198.368C80.3049 198.368 81.4249 198.816 81.8089 199.76L82.0169 198.528H83.0889ZM75.7929 202.24C75.4889 203.904 76.5129 205.088 78.0649 205.088C79.6009 205.088 81.0089 204.096 81.3609 202.24C81.7129 200.384 80.3849 199.44 79.0409 199.44C77.4889 199.44 76.0969 200.528 75.7929 202.24ZM93.6218 194.48L91.5898 206H90.5178L90.7258 204.72C90.0058 205.664 88.7418 206.16 87.6538 206.16C85.5258 206.16 84.1018 204.608 84.5178 202.24C84.9498 199.872 86.9018 198.368 89.0298 198.368C90.1018 198.368 91.2218 198.816 91.6058 199.76L92.5498 194.48H93.6218ZM85.5898 202.24C85.2858 203.904 86.3098 205.088 87.8618 205.088C89.3978 205.088 90.8058 204.096 91.1578 202.24C91.5098 200.384 90.1818 199.44 88.8378 199.44C87.2858 199.44 85.8938 200.528 85.5898 202.24ZM97.4026 206.16C95.2746 206.16 93.8986 204.608 94.3146 202.24C94.7466 199.872 96.6506 198.368 98.7786 198.368C100.891 198.368 102.187 199.872 101.755 202.24C101.707 202.416 101.707 202.592 101.659 202.736H95.3226C95.2746 204.208 96.1866 205.104 97.5946 205.104C98.6186 205.104 99.5306 204.624 100.155 203.808L101.163 204.048C100.347 205.392 98.9226 206.16 97.4026 206.16ZM95.4986 201.744H100.763C100.811 200.32 99.9786 199.424 98.5866 199.424C97.2106 199.424 95.9306 200.32 95.4986 201.744ZM103.093 206L105.125 194.48H106.197L105.253 199.76C105.973 198.816 107.237 198.368 108.325 198.368C110.453 198.368 111.877 199.872 111.445 202.24C111.029 204.608 109.061 206.16 106.933 206.16C105.845 206.16 104.773 205.68 104.389 204.72L104.165 206H103.093ZM110.373 202.24C110.677 200.528 109.685 199.44 108.133 199.44C106.789 199.44 105.157 200.384 104.805 202.24C104.469 204.096 105.637 205.088 107.141 205.088C108.677 205.088 110.069 203.904 110.373 202.24ZM113.002 204.384L113.994 203.984C114.25 204.816 115.018 205.072 115.786 205.12C117.85 205.2 118.874 203.024 119.21 200.8C118.666 201.76 117.37 202.16 116.442 202.112C114.57 202.032 113.434 200.416 113.866 198.544C114.282 196.64 116.042 195.168 117.93 195.248C119.77 195.328 120.826 196.64 120.618 198.832C120.41 200.464 120.154 201.68 119.69 202.992C119.05 204.88 117.418 206.256 115.546 206.176C114.442 206.128 113.338 205.776 113.002 204.384ZM119.546 198.784C119.802 197.392 118.954 196.368 117.69 196.32C116.394 196.272 115.21 197.264 114.906 198.592C114.618 199.92 115.37 200.992 116.65 201.04C117.962 201.088 119.258 200.128 119.546 198.784ZM28.776 219.76L29.384 220.512C28.216 221.536 26.712 222.16 25.16 222.16C22.04 222.16 20.264 219.648 20.824 216.512C21.384 213.392 24.04 210.848 27.16 210.848C28.712 210.848 29.976 211.472 30.792 212.496L29.928 213.232C29.24 212.416 28.264 211.904 26.984 211.904C24.456 211.904 22.312 213.952 21.88 216.512C21.416 219.056 22.824 221.104 25.352 221.104C26.632 221.104 27.816 220.592 28.776 219.76ZM37.609 219.568L43.305 210.976H44.361L43.769 222H42.729L43.225 212.864L37.913 220.8H36.857L34.377 212.864L31.641 222H30.601L33.881 210.976H34.937L37.609 219.568ZM50.727 216.88L49.831 222H48.743L49.639 216.88L46.535 210.976H47.799L50.391 215.728L54.679 210.976H55.959L50.727 216.88ZM58.9548 216.496L63.2108 222H61.7868L57.7708 216.816L56.8748 222H55.8188L57.7548 210.976H58.8108L57.8668 216.336L62.9708 210.976H64.2188L58.9548 216.496ZM68.2428 221.632L73.6508 216.24C74.2908 215.616 74.7388 214.976 74.8668 214.272C75.0748 213.072 74.2268 212.288 73.0108 212.288C71.8748 212.288 70.8028 212.912 70.4668 214L69.5228 213.744C70.0828 212.192 71.5548 211.232 73.2028 211.232C75.0268 211.232 76.2268 212.48 75.9228 214.272C75.7468 215.296 75.1068 216.224 74.2908 216.992L70.2428 220.944H74.7548L74.5788 222H68.1948L68.2428 221.632ZM78.857 213.84C79.113 212.4 80.521 211.232 82.057 211.232C83.625 211.232 84.601 212.4 84.345 213.84C84.201 214.656 83.689 215.36 83.033 215.824C83.993 216.416 84.537 217.504 84.297 218.768C83.945 220.656 82.137 222.16 80.105 222.16C78.073 222.16 76.761 220.656 77.113 218.768C77.353 217.504 78.233 216.416 79.449 215.824C78.937 215.36 78.713 214.656 78.857 213.84ZM78.169 218.768C77.913 220.064 78.841 221.104 80.281 221.104C81.737 221.104 82.985 220.064 83.241 218.768C83.497 217.488 82.553 216.384 81.113 216.384L81.001 216.4C79.625 216.528 78.393 217.52 78.169 218.768ZM79.929 213.84C79.785 214.688 80.297 215.424 81.209 215.424L81.353 215.408C82.313 215.344 83.161 214.688 83.305 213.84C83.449 212.96 82.841 212.288 81.865 212.288C80.905 212.288 80.073 212.96 79.929 213.84ZM93.6799 210.976L86.3519 222H85.1839L92.5119 210.976H93.6799ZM94.2504 216.704C94.7624 213.696 96.0264 211.232 99.0344 211.232C102.058 211.232 102.33 213.696 101.818 216.704C101.306 219.728 100.09 222.16 97.0824 222.16C94.0584 222.16 93.7384 219.712 94.2504 216.704ZM95.3064 216.704C94.8744 219.136 95.0824 221.104 97.2744 221.104C99.4664 221.104 100.33 219.136 100.762 216.704C101.194 214.256 101.034 212.288 98.8424 212.288C96.6504 212.288 95.7384 214.256 95.3064 216.704ZM111.008 210.976L103.68 222H102.512L109.84 210.976H111.008ZM113.243 213.248L112.491 212.72C113.243 211.744 114.475 211.136 115.755 211.216C117.739 211.344 118.491 212.736 118.075 214.24C117.835 215.088 117.099 215.904 116.203 216.272C117.387 216.576 117.899 218 117.595 219.216C117.115 220.976 115.211 222.272 113.291 222.144C111.931 222.032 110.907 221.264 110.635 220.176L111.659 219.744C111.851 220.464 112.555 221.008 113.562 221.088H113.547C114.875 221.168 116.283 220.272 116.571 219.056C116.827 217.856 115.883 216.816 114.571 216.816H113.547L113.739 215.808H114.763C115.835 215.808 116.811 215.04 117.019 214.08C117.227 213.12 116.763 212.368 115.499 212.288C114.603 212.24 113.739 212.624 113.243 213.248ZM125.613 219.728L125.213 222H124.157L124.557 219.728H118.989L126.317 211.36H127.101L125.789 218.752H127.389L127.213 219.728H125.613ZM121.101 218.752H124.733L125.661 213.472L121.101 218.752ZM136.508 210.976L129.18 222H128.012L135.34 210.976H136.508ZM137.079 216.704C137.591 213.696 138.855 211.232 141.863 211.232C144.887 211.232 145.159 213.696 144.647 216.704C144.135 219.728 142.919 222.16 139.911 222.16C136.887 222.16 136.567 219.712 137.079 216.704ZM138.135 216.704C137.703 219.136 137.911 221.104 140.103 221.104C142.295 221.104 143.159 219.136 143.591 216.704C144.023 214.256 143.863 212.288 141.671 212.288C139.479 212.288 138.567 214.256 138.135 216.704Z" fill="white"/>
<path d="M22.36 37.032C22.36 36.712 22.2 36.552 21.88 36.552H19.64C19.336 36.552 19.16 36.376 19.16 36.072V34.28C19.16 33.96 19.336 33.8 19.64 33.8H27.832C28.152 33.8 28.312 33.96 28.312 34.28V36.072C28.312 36.376 28.152 36.552 27.832 36.552H25.592C25.288 36.552 25.112 36.712 25.112 37.032V44.52C25.112 44.824 24.952 45 24.632 45H22.84C22.536 45 22.36 44.824 22.36 44.52V37.032ZM36.4688 33.8C36.7888 33.8 36.9488 33.96 36.9488 34.28V36.072C36.9488 36.376 36.7888 36.552 36.4688 36.552H32.5968C32.2928 36.552 32.1168 36.712 32.1168 37.032V37.544C32.1168 37.848 32.2928 38.024 32.5968 38.024H35.0768C35.3968 38.024 35.5568 38.184 35.5568 38.504V40.296C35.5568 40.6 35.3968 40.776 35.0768 40.776H32.5968C32.2928 40.776 32.1168 40.936 32.1168 41.256V41.768C32.1168 42.072 32.2928 42.248 32.5968 42.248H36.4688C36.7888 42.248 36.9488 42.408 36.9488 42.728V44.52C36.9488 44.84 36.7888 45 36.4688 45H29.7488C29.4448 45 29.2688 44.824 29.2688 44.52V34.28C29.2688 33.96 29.4448 33.8 29.7488 33.8H36.4688ZM44.911 40.984L46.607 44.136C46.831 44.552 46.575 45 46.079 45H44.255C44.095 45 43.951 44.92 43.887 44.776L42.223 41.56C42.191 41.512 42.143 41.48 42.095 41.48H41.455C41.167 41.48 40.959 41.688 40.959 41.976V44.504C40.959 44.792 40.751 45 40.463 45H38.671C38.383 45 38.175 44.792 38.175 44.504V34.296C38.175 34.008 38.383 33.8 38.671 33.8H42.175C45.023 33.8 46.175 35.016 46.175 37.64C46.175 39.128 45.807 40.168 44.959 40.776C44.895 40.824 44.879 40.904 44.911 40.984ZM42.271 36.552H41.455C41.167 36.552 40.959 36.76 40.959 37.048V38.232C40.959 38.52 41.167 38.728 41.455 38.728H42.271C43.039 38.728 43.423 38.632 43.423 37.64C43.423 36.648 43.039 36.552 42.271 36.552ZM49.9069 37.032C49.9069 36.712 49.7469 36.552 49.4269 36.552H47.1869C46.8829 36.552 46.7069 36.376 46.7069 36.072V34.28C46.7069 33.96 46.8829 33.8 47.1869 33.8H55.3789C55.6989 33.8 55.8589 33.96 55.8589 34.28V36.072C55.8589 36.376 55.6989 36.552 55.3789 36.552H53.1389C52.8349 36.552 52.6589 36.712 52.6589 37.032V44.52C52.6589 44.824 52.4989 45 52.1789 45H50.3869C50.0829 45 49.9069 44.824 49.9069 44.52V37.032ZM59.0556 33.8C59.3756 33.8 59.5356 33.96 59.5356 34.28V44.52C59.5356 44.824 59.3756 45 59.0556 45H57.2956C56.9916 45 56.8156 44.824 56.8156 44.52V34.28C56.8156 33.96 56.9916 33.8 57.2956 33.8H59.0556ZM68.8881 44.456C68.8881 44.808 68.7281 45 68.4081 45H66.6161C66.3121 45 66.1361 44.84 66.1361 44.52V43.128C66.1361 42.808 65.9761 42.648 65.6561 42.648H64.2801C63.9761 42.648 63.8001 42.808 63.8001 43.128V44.52C63.8001 44.84 63.6401 45 63.3201 45H61.5281C61.2241 45 61.0481 44.808 61.0481 44.456V37.672C61.0481 35.656 61.3681 33.512 64.9681 33.512C68.5681 33.512 68.8881 35.656 68.8881 37.672V44.456ZM66.1361 37.672C66.1361 36.904 66.0241 36.52 64.9681 36.52C63.9121 36.52 63.8001 36.904 63.8001 37.672V39.416C63.8001 39.72 63.9761 39.896 64.2801 39.896H65.6561C65.9761 39.88 66.1361 39.72 66.1361 39.4V37.672ZM77.1454 40.984L78.8414 44.136C79.0654 44.552 78.8094 45 78.3134 45H76.4894C76.3294 45 76.1854 44.92 76.1214 44.776L74.4574 41.56C74.4254 41.512 74.3774 41.48 74.3294 41.48H73.6894C73.4014 41.48 73.1934 41.688 73.1934 41.976V44.504C73.1934 44.792 72.9854 45 72.6974 45H70.9054C70.6174 45 70.4094 44.792 70.4094 44.504V34.296C70.4094 34.008 70.6174 33.8 70.9054 33.8H74.4094C77.2574 33.8 78.4094 35.016 78.4094 37.64C78.4094 39.128 78.0414 40.168 77.1934 40.776C77.1294 40.824 77.1134 40.904 77.1454 40.984ZM74.5054 36.552H73.6894C73.4014 36.552 73.1934 36.76 73.1934 37.048V38.232C73.1934 38.52 73.4014 38.728 73.6894 38.728H74.5054C75.2734 38.728 75.6574 38.632 75.6574 37.64C75.6574 36.648 75.2734 36.552 74.5054 36.552ZM81.2729 33.8C81.5449 33.8 81.7209 33.912 81.8169 34.168L83.0009 37.144C83.0649 37.288 83.1609 37.288 83.2249 37.144L84.4089 34.168C84.5049 33.912 84.6809 33.8 84.9529 33.8H87.2409C87.6089 33.8 87.7689 34.024 87.6089 34.36L84.7449 40.76C84.7129 40.824 84.7129 40.888 84.7129 40.952V44.52C84.7129 44.824 84.5529 45 84.2329 45H81.9929C81.6889 45 81.5129 44.824 81.5129 44.52V40.952C81.5129 40.888 81.5129 40.824 81.4809 40.76L78.6009 34.36C78.4409 34.024 78.6009 33.8 78.9689 33.8H81.2729Z" fill="white"/>
</g>
<defs>
<filter id="filter0_d_215_1709" x="0" y="0" width="266" height="261" filterUnits="userSpaceOnUse" color-interpolation-filters="sRGB">
<feFlood flood-opacity="0" result="BackgroundImageFix"/>
<feColorMatrix in="SourceAlpha" type="matrix" values="0 0 0 0 0 0 0 0 0 0 0 0 0 0 0 0 0 0 127 0" result="hardAlpha"/>
<feOffset dy="4"/>
<feGaussianBlur stdDeviation="2"/>
<feComposite in2="hardAlpha" operator="out"/>
<feColorMatrix type="matrix" values="0 0 0 0 0 0 0 0 0 0 0 0 0 0 0 0 0 0 0.25 0"/>
<feBlend mode="normal" in2="BackgroundImageFix" result="effect1_dropShadow_215_1709"/>
<feBlend mode="normal" in="SourceGraphic" in2="effect1_dropShadow_215_1709" result="shape"/>
</filter>
</defs>
</svg>
