<svg width="29" height="24" viewBox="0 0 29 24" fill="none" xmlns="http://www.w3.org/2000/svg">
<path d="M28.988 19.6089C28.988 18.9522 28.988 18.3075 28.944 17.6508C28.8435 16.2653 28.9032 14.8719 28.8843 13.4864C28.8467 10.7675 28.5358 8.12467 28.3945 5.4378C28.3254 4.13241 28.3254 2.807 28.2061 1.4976C28.1307 0.672725 28.0648 0.428459 27.4211 0.352378C26.9344 0.296318 26.4885 0.224246 25.9861 0.220242C24.84 0.220242 23.6813 0.0880959 22.5321 0.0520574C21.7314 0.0280318 20.9306 0 20.1268 0H15.2064C11.9878 0 8.76302 0.112118 5.55076 0.348369C4.67469 0.412438 3.80177 0.472502 2.9257 0.536571C2.28827 0.584622 1.61945 0.608654 1.01342 0.880944C0.328896 1.18527 0.134206 2.02617 0.112225 2.91111C0.0933853 3.69194 0.112225 4.47677 0.112225 5.25761C0.112225 6.78724 0.112225 8.32087 0.112225 9.8505C0.118506 12.8177 0.00860521 15.7928 0.0148853 18.768C0.0148853 19.9813 -0.12013 21.7592 0.423095 22.8363C0.809319 23.6012 1.81412 23.6452 2.45783 23.8374C3.48148 24.1417 4.6904 23.9255 5.74231 23.9255C6.9104 23.9255 8.08163 23.9415 9.24972 23.8815C11.5922 23.7573 13.966 23.9255 16.3116 23.9255C18.6573 23.9255 20.8521 23.8534 23.113 23.7453C24.7835 23.6652 28.024 23.9696 28.8561 21.6351C29.0633 21.0584 28.9848 20.4418 28.988 19.8091C28.988 19.741 28.988 19.669 28.988 19.6009V19.6089ZM26.9375 17.5187C26.9281 18.1433 26.8684 18.76 26.6769 19.2926C26.4351 19.0483 26.3095 18.6519 26.0897 18.3716C25.3361 17.4306 24.369 16.854 23.6562 15.8489C22.8021 14.6436 21.9449 13.4343 20.9401 12.4252C20.6261 12.1089 20.3215 11.7806 20.0106 11.4602C19.7343 11.1759 19.279 10.8716 19.0937 10.5112C20.1927 9.35397 21.6089 8.60517 22.7895 7.58409C24.0236 6.51895 25.154 5.2576 26.3817 4.18846C26.2687 4.28857 26.4634 6.58702 26.4665 6.89134C26.4759 8.7293 26.68 10.4712 26.8496 12.2931C26.9595 13.4584 26.9124 14.6116 26.9155 15.7808C26.9155 16.3254 26.9501 16.9301 26.9407 17.5267L26.9375 17.5187ZM5.55076 3.60785C6.44567 3.58783 7.38455 3.69994 8.2355 3.69194C9.56059 3.67992 10.8857 3.66791 12.2108 3.6559C14.861 3.63187 17.5111 3.61986 20.1613 3.6639C21.5021 3.68793 22.8586 3.58382 24.1994 3.66791C23.5494 4.14042 22.8492 4.46476 22.1835 4.89722C21.5178 5.32969 20.9526 5.80619 20.3152 6.22264C18.9304 7.1276 17.5959 8.19273 16.2708 9.22183C15.7936 9.59423 15.1059 10.2349 14.5061 10.0948C14.1858 10.0187 13.8467 9.69033 13.5484 9.51415C13.2062 9.30993 12.8639 9.0977 12.5248 8.88146C11.2248 8.06059 9.90599 7.29578 8.57147 6.563C7.85241 6.16658 7.1459 5.7261 6.45509 5.2536C5.76429 4.7811 4.96358 4.35665 4.40151 3.72398C4.76575 3.64389 5.15198 3.60785 5.54449 3.59985L5.55076 3.60785ZM3.1141 19.4928C2.98535 19.6089 2.85976 19.705 2.74044 19.7691C2.50808 18.9562 2.63682 17.863 2.63996 17.0101C2.6431 16.0211 2.65565 15.032 2.66507 14.043C2.68077 12.0969 2.66508 10.1548 2.71846 8.21276C2.74358 7.21169 2.59285 6.0985 2.76556 5.11746C3.2711 5.22557 4.08123 5.78617 4.51769 6.17459C5.12686 6.71116 5.73917 7.27976 6.32949 7.85637C7.50701 9.01361 9.03306 9.45008 10.2451 10.5312C9.82435 11.1959 9.26542 11.6364 8.7693 12.197C8.27317 12.7576 7.76135 13.3863 7.2715 13.9989C6.31379 15.2002 5.40319 16.4175 4.54596 17.7309C4.20684 18.2475 3.63848 19.0283 3.11724 19.4928H3.1141ZM24.1586 21.0064C23.8383 21.0584 23.518 21.0945 23.226 21.1465C22.5383 21.2627 21.8664 21.4028 21.1724 21.4549C19.7217 21.563 18.2616 21.5069 16.8078 21.5069C15.3539 21.5069 13.9001 21.4308 12.4463 21.4228C10.9924 21.4148 9.5386 21.5229 8.14757 21.2947C7.41908 21.1746 6.68431 21.2146 5.94954 21.2106C5.30898 21.2066 4.31673 21.2987 3.75781 20.8462C4.30731 20.0294 5.11744 19.2966 5.74544 18.5518C6.42055 17.7509 7.12078 16.866 7.74564 16.0051C8.33911 15.1882 8.93572 14.3593 9.48837 13.5024C9.75213 13.09 10.0599 12.7015 10.3739 12.3492C10.5591 12.1409 10.7695 11.9648 10.9579 11.7605C11.2311 11.4682 11.2531 11.3201 11.5922 11.4282C12.4651 11.7045 13.1591 12.6495 14.032 12.9778C15.0337 13.3542 15.9474 12.5213 16.8046 11.9607C16.9397 11.8727 17.2505 11.5763 17.4075 11.5884C17.5802 11.6004 17.7058 11.8326 17.844 11.9888C18.1925 12.3852 18.5631 12.7856 18.9524 13.11C19.6621 13.6986 20.3811 14.5075 20.9495 15.3123C21.6089 16.2453 22.3782 17.0902 23.0753 17.9712C23.7724 18.8521 24.6547 19.701 25.2639 20.7061C24.931 20.8662 24.5448 20.9503 24.1555 21.0144L24.1586 21.0064Z" fill="white"/>
</svg>
