<svg width="87" height="119" viewBox="0 0 87 119" fill="none" xmlns="http://www.w3.org/2000/svg">
<path d="M83.0117 82.6673C82.6971 80.539 81.8613 78.2913 81.4581 76.7895C81.055 75.3275 80.5928 73.8854 80.111 72.4533C78.8327 74.1937 77.2003 75.795 75.4599 77.0382C76.335 79.0173 77.1119 81.1854 76.5514 83.0651C76.453 83.3933 76.2367 83.6817 75.9515 83.9204C75.1059 84.6365 73.6604 85.0144 72.8049 85.4123C71.3201 86.0886 69.7173 86.8146 68.144 87.3914C64.8007 88.6147 61.7524 90.216 58.2911 91.1707C54.6528 92.1752 50.9949 93.1399 47.4255 94.3334C45.6063 94.9401 43.9052 95.5766 41.968 95.5269C40.4537 95.4871 38.4969 95.7357 37.5824 94.3135C36.6876 92.9211 36.2353 90.9917 35.6256 89.4501C34.072 85.5117 33.4427 81.0661 31.7514 77.1277C31.2597 75.9839 31.8202 75.8646 32.6953 74.9993C33.8753 73.8257 34.9766 72.7118 36.0288 71.4587C37.0908 70.2056 38.5363 68.6441 39.1558 67.1026C40.4734 63.8205 39.9522 60.2999 37.4939 57.7339C35.0356 55.168 30.9647 54.9392 27.7591 55.8641C26.2841 56.2918 24.701 56.8885 23.3833 57.6146C23.1473 56.252 22.4492 54.9392 22.0853 53.5966C21.633 51.9556 21.3183 50.3145 20.6988 48.7332C19.8335 46.5054 19.1354 44.3671 18.5356 42.0598C17.8472 39.4043 16.6967 36.9876 16.1461 34.2724C15.6249 31.6568 14.6023 29.3693 14.0221 26.8332C13.5206 24.6054 12.5471 22.3776 12.6455 20.0503C12.7831 16.9374 15.1923 16.8976 17.6604 16.2213C19.1747 15.8036 20.6595 15.1671 22.164 14.6897C25.6351 13.5858 29.1062 12.3227 32.5085 10.9999C36.078 9.60756 40.0506 8.57322 43.7872 7.7378C45.5178 7.34993 47.7106 7.10131 49.4511 7.53891C51.1424 7.96657 51.3292 9.62746 51.9291 11.0795C54.6725 17.6833 56.1868 24.7247 58.6156 31.4579C60.4642 36.5897 62.5784 41.6321 64.427 46.7739C65.961 45.0832 67.6425 43.6809 69.3535 42.3482C66.964 35.3565 64.8105 28.3748 62.6571 21.2538C61.3689 16.9872 60.2578 13.7549 58.9401 10.0253C57.7208 6.59408 57.2291 2.69545 53.6892 1.04449C50.7097 -0.347881 46.7961 -0.08931 43.5905 0.348292C39.9522 0.845568 36.432 2.05891 32.8527 2.98385C29.2144 3.91873 25.6941 5.66915 22.1837 7.0118C18.7421 8.3246 15.2709 9.66726 11.9965 11.3381C9.44967 12.641 6.7259 14.272 6.39157 17.3949C6.08674 20.2393 7.29622 23.0241 7.92555 25.7392C8.75153 29.3395 9.94135 32.8005 10.905 36.4008C11.1508 37.3357 11.436 38.2606 11.7408 39.1457C12.0457 40.021 12.1833 41.0254 12.4291 41.8808C12.2128 41.115 9.58735 44.9142 9.45952 45.1528C8.61387 46.6347 7.53221 48.1862 6.96188 49.7974C5.89007 52.8009 4.90674 56.0631 4.37575 59.2257C4.06109 61.0855 4.28725 63.0945 4.28725 64.9742C4.28725 66.8539 4.78876 69.3105 3.65795 70.683C2.5468 72.0455 1.26847 73.1892 0.668649 74.8998C0.0294924 76.7298 0 78.53 0 80.4495C0 84 0.117992 87.3616 1.13081 90.7232C1.59297 92.2747 1.94698 93.9356 2.49764 95.4771C2.99913 96.8794 3.79562 97.7646 4.00211 99.2663C4.25778 101.106 4.42493 102.837 4.42493 104.716C4.42493 106.427 4.07095 107.551 3.72679 109.152C3.46129 110.366 2.70412 111.649 4.11026 112.196C5.58524 112.772 7.01106 112.544 8.01404 111.39C8.84003 110.445 9.30219 109.073 9.48902 107.8C9.70535 106.367 10.0298 105.114 10.315 103.792C10.7772 101.673 10.0888 99.6443 9.24319 97.6751C8.27954 95.4473 7.87639 93.4681 7.44373 91.1011C6.55874 86.2676 4.96575 81.9313 6.38173 76.9586C7.26672 73.8556 9.76435 70.2454 12.1636 68.117C13.3436 67.0727 14.917 66.1777 16.2936 65.4118C17.8079 64.5665 19.1354 63.3233 20.6988 62.5972C23.7275 61.1949 26.1759 59.186 29.6274 59.0169C31.0925 58.9473 32.656 58.8577 33.8655 59.7827C34.7701 60.4789 35.724 61.8513 35.9501 62.8857C36.2648 64.3775 35.4093 65.6505 34.6521 66.8241C33.7377 68.2364 32.8723 69.5193 31.6628 70.7327C29.1849 73.1992 26.6184 75.248 23.9143 77.4061C22.8228 78.2714 21.5838 79.2958 20.4039 79.992C19.391 80.5887 17.6604 80.8672 17.3851 82.2794C16.7951 85.3029 22.3115 82.7469 23.2751 82.1899C24.2683 81.6031 25.1533 80.2307 26.3628 79.992C27.6509 84.726 29.5585 89.0026 31.299 93.3587C32.3217 95.9147 33.0493 99.2664 35.1733 101.096C37.2284 102.867 40.9355 101.385 43.4037 101.116C46.5011 100.778 49.6281 100.002 52.6862 99.3956C52.7845 101.812 49.6674 104.468 48.0253 105.92C46.7863 107.014 45.626 107.969 44.8 109.421C44.0527 110.734 43.7282 112.146 43.2168 113.578C42.6563 115.159 41.1519 119.794 44.4853 118.501C46.0095 117.914 46.3733 115.865 47.101 114.493C47.8974 113.011 48.4284 111.649 49.6182 110.425C51.8209 108.148 54.7512 107.034 56.177 104.289C56.9833 102.737 57.3078 101.106 57.6618 99.4951C58.0944 97.5557 60.3758 97.4065 62.0769 96.78C65.666 95.4473 69.2158 94.2339 72.7066 92.6128C74.4667 91.7874 76.1285 90.8127 77.81 89.8281C79.1572 89.0424 81.3106 88.2666 82.2841 87.0234C83.1494 85.9195 83.2281 84.3183 82.9822 82.6375L83.0117 82.6673ZM17.0311 61.006C15.8609 61.8315 14.3859 62.5674 13.7173 62.9951C12.9011 63.5123 12.0948 63.9697 11.2393 64.4173C10.3642 64.8748 9.78401 65.5014 8.98752 66.0086C9.14485 62.4282 8.91871 58.8876 10.3052 55.5459C11.3377 53.0695 12.9306 50.8118 14.0614 48.3951C14.5826 50.2947 15.4479 52.1246 15.9199 54.0541C16.2149 55.2575 16.5984 56.441 17.0802 57.5847C17.3654 58.2411 17.8669 59.5639 17.9259 60.2004C17.9554 60.4987 17.5129 60.6678 17.0114 61.0159L17.0311 61.006Z" fill="#214082"/>
<path d="M59.57 82.9358C59.4717 82.359 59.2947 81.7921 59.0193 81.265C58.2819 79.8229 55.7154 78.8383 54.2994 79.803C52.7064 80.8871 52.3819 83.632 52.6671 85.3526C52.9228 86.9439 53.8569 87.7594 55.3712 87.9882C58.6064 88.4854 60.0223 85.6211 59.57 82.9358Z" fill="#214082"/>
<path d="M24.3375 17.1265C24.0031 16.6988 23.4918 16.46 22.8822 16.6888C21.0827 17.3752 22.6068 20.8871 24.2391 19.554C24.9471 18.977 24.8685 17.813 24.3375 17.1265Z" fill="#214082"/>
<path d="M41.7222 11.8155C40.1292 11.0795 38.1134 12.3923 36.668 12.8995C34.3375 13.7151 33.4033 14.1925 31.6038 14.7395C30.5615 15.0577 29.3029 15.4158 28.3392 15.9528C27.8279 16.2412 26.9822 17.2557 27.9754 17.6436C29.3324 18.1806 31.5842 16.5495 32.8723 16.102C35.3601 15.2566 37.7988 14.2621 40.2964 13.4764C40.7881 13.3272 42.8235 13.188 41.9779 12.0343C41.8992 11.9348 41.8107 11.8553 41.7025 11.8056L41.7222 11.8155Z" fill="#214082"/>
<path d="M86.9845 60.091C87.0336 58.7086 86.9648 57.3162 86.7976 55.9338C86.424 52.9203 85.4702 50.3245 83.9165 47.7387C83.4347 46.943 82.8644 45.9982 82.1466 45.3119C81.5566 44.7451 80.2291 44.4169 79.8652 43.7207C79.0294 42.1394 79.2753 39.6231 78.8819 37.8528C78.3804 35.5952 77.7413 33.3077 76.3253 31.438C74.0833 28.4842 71.3497 27.3802 67.8294 26.7437C72.2544 23.8098 78.6656 19.8315 79.0393 13.8642C79.2458 10.5225 78.8033 7.7378 75.7845 5.87799C73.2574 4.31655 70.3074 5.7686 67.9572 6.94217C65.8726 7.9765 64.0043 9.38876 62.1655 10.7911C61.4182 11.358 60.1595 11.9547 60.0022 12.8796C59.9334 13.2874 61.015 15.5749 60.838 15.7141C61.8312 14.9384 63.08 14.5107 64.1125 13.7549C65.3121 12.8796 66.3545 12.1337 67.6721 11.4077C69.7272 10.2739 73.7785 8.85172 74.6241 12.3028C75.3616 15.3064 71.4284 18.1209 69.6191 19.9111C68.3604 21.1643 67.0231 22.2483 65.5776 23.2628C63.9453 24.4164 63.7388 25.0231 64.3288 26.8829C64.791 28.3548 65.4006 30.0058 65.7546 31.5772C67.6918 31.4578 70.7204 31.0998 72.1363 32.6513C73.3557 33.984 74.5356 36.4107 75.1158 38.0816C75.8926 40.3193 75.5485 43.5516 75.2141 45.8689C74.8503 48.3752 74.1423 50.8317 73.041 53.0794C72.2839 54.621 71.1531 55.9238 70.1304 57.2864C68.8914 58.9473 67.8884 60.8568 66.2659 62.1895C63.9256 64.099 61.782 66.4959 58.6452 66.9136C56.5704 67.1921 53.6598 67.0628 53.2665 64.4372C52.9223 62.1895 54.9381 60.0015 56.2459 58.4202C57.8684 56.4509 59.5991 54.6608 61.428 52.8904C64.3583 50.0361 67.7606 47.5596 69.7961 44.0688C70.9564 42.0697 68.8324 39.9812 66.8068 40.1303C64.6435 40.2795 63.3061 42.0399 62.0573 43.6212C60.5135 45.5805 59.0779 47.49 57.3866 49.3299C55.6953 51.1699 54.5841 53.3579 52.9125 55.1381C49.8445 58.4002 45.7244 62.0005 47.1502 66.9832C48.5662 71.9659 54.8004 73.0898 59.1369 71.8068C60.2284 71.4885 60.9953 70.6432 62.0573 70.2951C60.4939 72.5627 59.7859 75.7452 60.7495 78.4106C61.7624 81.2153 64.8008 82.9358 67.7114 82.9557C73.6113 82.9756 77.9871 77.2868 81.763 73.3384C85.2243 69.7282 86.8173 64.9544 86.9943 60.1009L86.9845 60.091ZM83.1889 58.6489C82.2842 64.7256 78.8328 70.3249 74.5651 74.6313C72.9722 76.2425 70.5729 78.4504 68.1933 78.2714C65.3023 78.0526 64.4468 75.6458 64.6533 73.05C64.7615 71.7073 65.2531 70.7924 65.7448 69.6089C65.9513 69.1215 66.0594 68.6143 66.3643 68.2264C66.7379 67.759 67.5639 67.4109 68.0457 67.033C69.9829 65.5312 71.6152 63.6813 73.0902 61.722C74.575 59.7628 76.0401 57.7836 77.3283 55.6851C77.6823 55.0984 80.0619 50.2251 79.6784 49.9366C81.1731 51.0406 82.8644 53.3579 83.179 55.2376C83.3757 56.4012 83.356 57.5449 83.179 58.6688L83.1889 58.6489Z" fill="#214082"/>
<path d="M24.2283 46.406C24.3266 46.3762 24.425 46.3961 24.5233 46.3563C24.6806 46.2967 24.8379 46.2469 24.9953 46.1972C25.0346 46.1873 25.074 46.1773 25.1133 46.1574C25.133 46.1475 25.1526 46.1276 25.1723 46.1177L25.2608 46.0878C25.4673 46.0182 25.6738 45.9585 25.8704 45.8889C26.0081 45.8392 26.1359 45.7596 26.2638 45.68C26.2834 45.68 26.3031 45.6601 26.3228 45.6601C26.4014 45.6303 26.4801 45.6104 26.5489 45.5806C26.6276 45.5408 26.7161 45.501 26.8046 45.4612C26.8931 45.4314 26.9619 45.3717 27.0602 45.3419C27.1389 45.3121 27.2176 45.2723 27.2963 45.2424C27.3749 45.2126 27.4634 45.1927 27.5421 45.1629L27.7879 45.0833C27.7879 45.0833 27.8862 45.0634 27.9157 45.0336C27.9157 45.0137 27.9059 44.9938 27.8961 44.9739C27.8764 44.9341 27.8961 44.9242 27.8961 44.8745C27.8961 44.8347 27.8764 44.7949 27.8666 44.7551C27.8666 44.7253 27.8666 44.6954 27.8469 44.6656C27.7978 44.4965 27.7584 44.3374 27.6994 44.1783C27.6011 43.87 27.4929 43.5716 27.3946 43.2633C27.3651 43.1738 27.3159 43.0842 27.2864 42.9848C27.2569 42.8953 27.2274 42.8058 27.1979 42.7262C27.1684 42.6467 27.1389 42.5671 27.0996 42.4875C27.0701 42.4378 27.0504 42.3881 27.0209 42.3383L26.2244 39.9315C25.9983 39.2453 25.7918 38.5491 25.4968 37.8828C25.4279 37.7236 25.3493 37.5744 25.3001 37.4054C25.251 37.2562 25.0641 36.9081 25.1133 36.7191C25.1821 36.7589 25.2411 36.7887 25.3099 36.8285C25.3984 36.8683 25.4771 36.9081 25.5656 36.9578C25.6443 37.0075 25.7229 37.0672 25.8114 37.107C25.9294 37.1667 26.0376 37.2562 26.1359 37.3258C26.1851 37.3656 26.2441 37.3954 26.2834 37.4352C26.3326 37.4849 26.3621 37.5247 26.4211 37.5645C26.4899 37.6142 26.5391 37.6739 26.5981 37.7236C26.6276 37.7535 26.6473 37.7933 26.6866 37.8131C26.7259 37.843 26.7456 37.8629 26.7751 37.9026C26.8243 37.9623 26.8832 38.022 26.9324 38.0717C26.9816 38.1214 27.0504 38.1712 27.0996 38.2209C27.1291 38.2507 27.1586 38.3303 27.2176 38.3303C27.2373 38.3303 27.2766 38.3104 27.2864 38.3104C27.3356 38.2905 27.3847 38.2806 27.4241 38.2607C27.5322 38.2209 27.6503 38.1911 27.7584 38.1513C28.0436 38.0419 28.3189 37.9325 28.6139 37.833C28.6631 37.8131 28.7221 37.8131 28.7319 37.7634C28.7417 37.7137 28.7417 37.654 28.7516 37.6043C28.7712 37.5346 28.8007 37.465 28.8106 37.3954C28.8401 37.2761 28.9089 37.1766 28.9482 37.0672C28.9679 37.0076 28.9974 36.9479 29.0072 36.8783C29.0269 36.8186 29.0564 36.7589 29.0761 36.6893C29.0957 36.6296 29.1056 36.5699 29.1252 36.5003C29.1351 36.4407 29.1449 36.381 29.1646 36.3213C29.2334 36.1622 29.2727 35.9931 29.3416 35.834C29.3514 35.8041 29.3514 35.7743 29.3612 35.7445C29.4792 36.1721 29.6366 36.5998 29.7841 37.0274C29.9316 37.4551 30.0397 37.9026 30.2167 38.3203C30.3741 38.6983 30.5117 39.0762 30.6395 39.4641C30.7674 39.852 30.905 40.2299 31.0624 40.6078C31.1804 40.8863 31.259 41.1847 31.3573 41.4731L31.5737 42.1195L31.7114 42.5273C31.7605 42.6864 31.8195 42.8356 31.8785 42.9947C31.8982 43.0445 31.9277 43.0942 31.9473 43.1439C31.9572 43.1837 31.967 43.2136 31.9867 43.2533C31.9867 43.2732 31.9965 43.3229 32.0162 43.3329C32.0359 43.3428 32.085 43.3329 32.1047 43.3329C32.1932 43.313 32.2915 43.3031 32.38 43.2832C32.5177 43.2533 32.6455 43.2136 32.7832 43.1638C33.088 43.0644 33.383 42.9649 33.6878 42.8555L34.622 42.5373L35.0645 42.3881C35.0645 42.3881 35.153 42.3682 35.1923 42.3483C35.2611 42.3085 35.2316 42.2289 35.212 42.1792C35.2021 42.1394 35.1825 42.1096 35.1726 42.0698C35.1726 42.0599 35.1726 42.04 35.1628 42.03C35.1628 42.0101 35.1333 42.0002 35.1235 41.9803C35.1235 41.8908 35.0546 41.7814 35.035 41.7118C34.9563 41.4731 34.9268 41.2344 34.8481 41.0056C34.7596 40.7073 34.6515 40.4089 34.5531 40.1106L31.1607 29.8269C30.8952 29.0213 30.6297 28.2157 30.3642 27.4101C30.2659 27.0919 30.1184 26.8134 30.02 26.4951C29.9512 26.2863 29.843 26.1272 29.6955 25.968C29.6365 25.8984 29.6464 25.8984 29.5382 25.9382C29.4596 25.968 29.4005 26.0078 29.3317 26.0476C29.1744 26.1371 28.9777 26.1769 28.8007 26.2365C28.5451 26.3261 28.2992 26.4454 28.0436 26.5449C27.7879 26.6443 27.5519 26.7637 27.2864 26.8432C26.9914 26.9427 26.6178 27.0024 26.3523 27.1814C26.2933 27.2212 26.2146 27.2709 26.1654 27.3206C26.0966 27.3803 26.1163 27.3505 26.1163 27.43C26.1163 27.6389 26.1359 27.8577 26.1753 28.0566C26.2048 28.2058 26.1458 28.3351 26.1359 28.4842C26.1359 28.6235 26.1163 28.7528 26.1359 28.892C26.1556 29.1009 26.1654 29.2799 26.1556 29.4888C26.1556 29.6777 26.1851 29.8567 26.1851 30.0457C26.1949 30.3938 26.1556 30.7518 26.1556 31.1098C26.1556 31.5276 26.1359 31.9453 26.1064 32.353C26.0966 32.4923 26.1753 32.9001 25.9884 32.9597C25.8901 32.9299 25.8704 32.8404 25.8114 32.7807C25.7721 32.7409 25.7229 32.7011 25.6738 32.6713C25.6443 32.6514 25.6148 32.6216 25.5853 32.6017C25.5459 32.5519 25.4968 32.4923 25.4574 32.4426C25.4083 32.3829 25.3788 32.3232 25.3296 32.2635C25.2805 32.2138 25.2608 32.1641 25.2313 32.1144C25.1821 32.0447 25.133 31.9751 25.0838 31.9055C25.0445 31.8458 25.015 31.7762 24.9756 31.7066C24.9166 31.627 24.8576 31.5475 24.8085 31.4679C24.7691 31.4082 24.7495 31.3486 24.7101 31.2889C24.661 31.2193 24.6118 31.1596 24.5626 31.0999C24.5331 31.0601 24.5135 31.0104 24.4938 30.9706C24.425 30.8612 24.3168 30.7717 24.2578 30.6623C24.1988 30.5529 24.1103 30.4634 24.0415 30.3639C24.012 30.3241 23.9825 30.2844 23.953 30.2446C23.9235 30.2048 23.8842 30.1849 23.8547 30.1451C23.7957 30.0556 23.7268 29.9761 23.658 29.8965C23.5891 29.8169 23.5203 29.7374 23.4515 29.6578C23.4023 29.5981 23.3433 29.5484 23.2843 29.4987C23.2351 29.4589 23.186 29.4291 23.1467 29.3893C23.0778 29.3197 23.009 29.2401 22.9401 29.1605C22.9008 29.1108 22.8517 29.071 22.8025 29.0312C22.7632 28.9716 22.714 28.9119 22.6648 28.8721C22.655 28.8622 22.6353 28.8522 22.6157 28.8522C22.5665 28.8025 22.5075 28.7727 22.478 28.713C22.478 28.6931 22.4583 28.6732 22.4387 28.6633C22.3993 28.6533 22.3993 28.6334 22.3797 28.6135C22.36 28.5937 22.3305 28.5936 22.3108 28.5738C22.301 28.5539 22.3108 28.534 22.2911 28.524C22.2813 28.5141 22.2518 28.5041 22.242 28.4942C22.2322 28.4843 22.2125 28.4644 22.2027 28.4544C22.1732 28.4345 22.1437 28.4345 22.1142 28.4246C22.0945 28.4246 22.0847 28.4047 22.0552 28.4047C22.0158 28.4047 21.9667 28.4345 21.9273 28.4445L21.5143 28.5837L21.357 28.6334C21.1702 28.6931 20.9833 28.7627 20.7867 28.8224L20.5212 28.9119C20.2655 29.0014 20.0197 29.071 19.764 29.1605C19.6165 29.2103 19.469 29.2799 19.3215 29.3296C19.1937 29.3694 19.0757 29.4291 18.9577 29.4688C18.938 29.4688 18.8987 29.4788 18.879 29.4888C18.8495 29.5086 18.8594 29.5086 18.8692 29.5385C18.8987 29.6479 18.938 29.7473 18.9774 29.8567C19.0265 29.996 19.0659 30.1451 19.115 30.2744C19.1347 30.3341 19.174 30.3838 19.1937 30.4435C19.2134 30.4932 19.2232 30.5629 19.2527 30.6026C19.2724 30.6325 19.2822 30.6225 19.292 30.6524C19.292 30.6723 19.3117 30.7021 19.3117 30.722C19.3215 30.7618 19.3412 30.8015 19.3609 30.8413C19.4297 31.0502 19.4985 31.259 19.5674 31.4579C19.7247 31.9353 19.882 32.4227 20.0492 32.9001C20.1672 33.2382 20.2262 33.5962 20.3442 33.9344C20.4524 34.2725 20.5704 34.6107 20.6785 34.9488L21.4554 37.3159C21.711 38.0916 21.9175 38.8674 22.1732 39.6431L23.0778 42.3881C23.1073 42.4975 23.127 42.6069 23.1565 42.7063C23.1565 42.7461 23.1565 42.776 23.1565 42.8157C23.1565 42.8456 23.1761 42.8754 23.186 42.9152C23.186 42.9848 23.2155 43.0445 23.2253 43.1141C23.2351 43.1738 23.2646 43.2235 23.2745 43.2832C23.2843 43.3627 23.3138 43.4323 23.3335 43.5119C23.3925 43.681 23.4416 43.8501 23.5006 44.0291C23.5203 44.0987 23.5301 44.1683 23.5498 44.2379C23.5695 44.2976 23.599 44.3573 23.599 44.4169C23.599 44.4667 23.599 44.5065 23.6186 44.5562C23.6285 44.586 23.6383 44.6159 23.6481 44.6457C23.6776 44.7352 23.7071 44.8247 23.7366 44.9142C23.7563 44.9739 23.776 45.0236 23.7956 45.0833C23.8153 45.143 23.8153 45.2027 23.835 45.2723C23.835 45.2922 23.8547 45.3121 23.8547 45.3319C23.8547 45.3618 23.8547 45.3717 23.8547 45.4016C23.8547 45.4513 23.8841 45.5109 23.9038 45.5607C23.9333 45.6502 23.9431 45.7397 23.9726 45.8292L24.0611 46.0878C24.0906 46.1674 24.1201 46.2469 24.1398 46.3265L24.1496 46.3762C24.1791 46.3961 24.2185 46.3663 24.248 46.3563L24.2283 46.406Z" fill="#214082"/>
<path d="M33.1169 27.7781C33.166 27.9073 33.2054 28.0366 33.2447 28.1659L33.3725 28.5637C33.402 28.6433 33.4217 28.7229 33.4512 28.8024C33.4905 28.9118 33.5397 29.0212 33.579 29.1306C33.638 29.3196 33.7069 29.5086 33.7659 29.6975C33.7855 29.7771 33.815 29.8268 33.8544 29.8964C33.9035 29.976 33.9232 30.0755 33.9527 30.155L34.2674 31.0999L34.5722 32.0248C34.582 32.0745 34.5918 32.1242 34.6115 32.174C34.7098 32.522 34.818 32.8702 34.936 33.2183C34.9852 33.3774 35.0245 33.5365 35.0737 33.6857C35.1228 33.8249 35.172 33.9741 35.2113 34.1133L35.4867 34.9587L35.7915 35.8737C35.8407 36.0328 35.8997 36.192 35.9488 36.3511C36.0078 36.54 36.0963 36.7191 36.1652 36.8981C36.1848 36.9478 36.1947 36.9876 36.2045 37.0373C36.2242 37.097 36.2635 37.1567 36.2831 37.2163C36.3028 37.276 36.3225 37.3456 36.352 37.4053C36.3717 37.4451 36.3913 37.4849 36.4011 37.5246C36.4995 37.7932 36.5683 38.0816 36.6667 38.3501C36.6863 38.4098 36.7256 38.4496 36.7453 38.4993C36.765 38.5391 36.7748 38.5789 36.7847 38.6187C36.824 38.738 36.883 38.8474 36.9125 38.9668C36.9518 39.096 37.001 39.2253 37.0501 39.3447C37.0698 39.4043 37.0895 39.4541 37.1288 39.5038C37.1682 39.5734 37.1878 39.6431 37.2173 39.7127C37.2468 39.8022 37.2763 39.9016 37.3058 39.9911C37.3353 40.0807 37.355 40.2199 37.414 40.2995C37.4631 40.379 37.4926 40.4486 37.5221 40.5381C37.5516 40.6376 37.6008 40.7171 37.65 40.8067C37.6893 40.8663 37.709 40.9359 37.7385 40.9956C37.7581 41.0255 37.7778 41.0852 37.8073 41.115C37.8269 41.1249 37.8368 41.115 37.8466 41.1349C37.8466 41.1349 37.8565 41.1747 37.8565 41.1647C37.886 41.2045 37.9155 41.2045 37.9548 41.1945C38.1416 41.1647 38.3186 41.0951 38.4956 41.0652C38.5841 41.0454 38.6628 41.0155 38.7513 40.9956C38.8398 40.9757 38.9185 40.9559 38.9971 40.926L39.4691 40.7669C39.5478 40.7371 39.6363 40.7072 39.7149 40.6774C39.7444 40.6774 39.7739 40.6674 39.8133 40.6575C39.8723 40.6475 39.9313 40.6177 39.9903 40.5978C40.1279 40.5481 40.2557 40.4984 40.3934 40.4486C40.4229 40.4387 40.4131 40.4486 40.4328 40.4188C40.4524 40.3989 40.4524 40.3591 40.4819 40.3392C40.4917 40.3293 40.5016 40.3392 40.5114 40.3193C40.5212 40.2994 40.5114 40.2597 40.5114 40.2398C40.5114 40.2099 40.5114 40.2 40.5114 40.1602C40.5114 40.1403 40.4918 40.1105 40.4918 40.0906C40.4524 39.8817 40.3541 39.6629 40.2853 39.4541L40.0493 38.728L39.3314 36.5401C39.1151 35.8836 38.9086 35.2272 38.6824 34.5708C38.6529 34.4913 38.6431 34.4117 38.653 34.3421L38.9578 34.2426C38.9578 34.2426 38.9578 34.2526 38.9774 34.2625C39.0069 34.2824 39.0168 34.3122 39.0364 34.3421C39.0659 34.3819 39.0955 34.4018 39.125 34.4316C39.1643 34.4714 39.2134 34.4913 39.2528 34.531C39.3118 34.6106 39.4298 34.6305 39.4888 34.7001C39.5969 34.8095 39.7149 34.9189 39.8231 35.0283C39.8919 35.0979 39.9706 35.1676 40.0493 35.2272C40.1181 35.2869 40.1771 35.3565 40.2459 35.4162C40.3934 35.5355 40.5114 35.6748 40.6589 35.8041C40.7376 35.8737 40.8064 35.9532 40.8753 36.0229C40.9343 36.0825 40.9933 36.1323 41.0523 36.192C41.1211 36.2516 41.1801 36.3312 41.2391 36.4008C41.2882 36.4505 41.3472 36.4903 41.3866 36.55C41.4456 36.6096 41.4751 36.6793 41.5341 36.7389C41.5931 36.7986 41.6422 36.8682 41.7012 36.9379C41.8291 37.087 41.9667 37.2263 42.0946 37.3755C42.1929 37.4849 42.2716 37.6142 42.3699 37.7136C42.4584 37.8031 42.5469 37.9026 42.6354 37.9921C42.6944 38.0518 42.7337 38.1015 42.7829 38.1711C42.8222 38.2208 42.8714 38.2606 42.9206 38.3104C43.0484 38.4595 43.1664 38.5988 43.2942 38.748C43.3434 38.8076 43.3827 38.8673 43.4319 38.927C43.4614 38.9568 43.481 38.9966 43.5007 39.0264C43.5204 39.0463 43.5499 39.0662 43.5695 39.0861C43.6187 39.1358 43.658 39.1955 43.7072 39.2452C43.7367 39.2751 43.776 39.3347 43.8154 39.3447C43.835 39.3447 43.8842 39.3248 43.8842 39.3248C43.9727 39.2949 44.0612 39.2651 44.1497 39.2353C44.248 39.2054 44.3365 39.1657 44.425 39.1259C44.7299 38.9867 45.0347 38.8772 45.3493 38.7678C45.605 38.6783 45.8607 38.5988 46.1065 38.5092C46.1852 38.4894 46.2442 38.4396 46.3228 38.4197C46.372 38.4098 46.4408 38.3899 46.4802 38.3601C46.4802 38.3203 46.4507 38.2407 46.4212 38.2109C46.3917 38.1811 46.3622 38.1512 46.3327 38.1214C46.313 38.1015 46.313 38.0816 46.2933 38.0617C46.2638 38.0319 46.2343 38.012 46.2147 37.9722C46.1852 37.9125 46.1458 37.8528 46.0967 37.8031C46.0573 37.7633 46.0377 37.7037 46.0082 37.6539C45.9984 37.6341 45.9885 37.6241 45.9787 37.6042C45.959 37.5744 45.959 37.5346 45.9295 37.5147C45.9098 37.4948 45.8803 37.4749 45.8607 37.455C45.8312 37.4252 45.8017 37.3755 45.7722 37.3456C45.7328 37.2959 45.6738 37.2661 45.6247 37.2064C45.5755 37.1467 45.5362 37.087 45.487 37.0274C45.4575 36.9876 45.4182 36.9577 45.3887 36.9279C45.369 36.8981 45.3493 36.8583 45.3198 36.8284C45.2412 36.7389 45.1527 36.6494 45.074 36.5599C44.956 36.4306 44.8479 36.3013 44.72 36.182C44.6512 36.1124 44.5725 36.0527 44.5037 35.9831C44.4742 35.9433 44.4447 35.9035 44.4152 35.8737C44.3759 35.8339 44.3365 35.8041 44.307 35.7543C44.2579 35.6947 44.2185 35.635 44.1694 35.5753C44.1202 35.5157 44.0612 35.4659 44.012 35.4062C43.9629 35.3565 43.9235 35.2969 43.8842 35.2372C43.835 35.1775 43.7662 35.1178 43.717 35.0581C43.6777 35.0084 43.6384 34.9687 43.599 34.9189C43.5597 34.8692 43.5007 34.8294 43.4614 34.7797C43.422 34.7299 43.363 34.6802 43.3237 34.6305C43.2745 34.5708 43.2254 34.5112 43.1762 34.4515C43.1172 34.3918 43.0976 34.3222 43.0484 34.2725C42.9992 34.2227 42.9501 34.173 42.9009 34.1233C42.8419 34.0636 42.7927 33.994 42.7337 33.9343C42.6747 33.8846 42.6256 33.8249 42.5666 33.7752C42.4584 33.6757 42.3404 33.5862 42.2322 33.4967C42.183 33.4569 42.1339 33.4271 42.0946 33.3774C42.0454 33.3177 41.9864 33.268 41.9274 33.2282C41.8979 33.2083 41.8782 33.1984 41.8487 33.1785C41.8192 33.1486 41.7897 33.1188 41.7504 33.0989C41.6914 33.069 41.6422 33.0392 41.5931 32.9995C41.5341 32.9398 41.4652 32.89 41.4161 32.8304C41.3571 32.7607 41.2882 32.6911 41.2194 32.6314C41.1899 32.6016 41.1506 32.5817 41.1112 32.5519C41.2981 32.3928 41.5439 32.2933 41.7111 32.1143C41.9077 31.9054 42.1732 31.7761 42.3502 31.5474C42.5076 31.3485 42.6551 31.1297 42.7632 30.9109C42.8222 30.7816 42.9107 30.6523 42.9304 30.5131C42.9599 30.3241 43.0484 30.165 43.0779 29.976C43.0976 29.8368 43.1369 29.7075 43.1565 29.5682C43.1762 29.4489 43.1369 29.3395 43.1369 29.2201C43.1369 29.1903 43.1369 29.1704 43.1369 29.1406C43.1369 29.1406 43.1369 29.1406 43.1369 29.1306C43.127 29.0908 43.1369 29.071 43.1369 29.0312C43.1369 28.9914 43.1369 28.9417 43.1369 28.9019C43.1369 28.8521 43.1172 28.8124 43.1172 28.7627C43.1172 28.7129 43.1172 28.6731 43.1074 28.6234C43.0976 28.5339 43.0779 28.4543 43.068 28.3748C43.0385 28.2156 42.9894 28.0764 42.9402 27.9173L42.5666 26.7736L42.4682 26.4652C42.4682 26.4652 42.4387 26.3757 42.4289 26.326C42.4092 26.2663 42.3601 26.2166 42.3404 26.1669C42.3011 26.0674 42.2617 25.958 42.2224 25.8585C42.2027 25.8088 42.1831 25.7691 42.1634 25.7293C42.1437 25.6895 42.1044 25.6497 42.0847 25.6099C42.0651 25.5602 42.0552 25.5105 42.0356 25.4607C42.0159 25.411 41.9864 25.3712 41.9569 25.3215C41.9077 25.2419 41.8782 25.1524 41.8291 25.0629C41.8094 25.0231 41.7799 24.9933 41.7701 24.9436C41.7603 24.9038 41.7406 24.8839 41.7111 24.8541C41.6914 24.8342 41.6816 24.8242 41.6619 24.7944C41.6521 24.7546 41.6324 24.7248 41.6128 24.6949C41.5833 24.6552 41.5636 24.6154 41.5439 24.5756C41.5144 24.5458 41.4849 24.506 41.4554 24.4761C41.3866 24.4065 41.3276 24.3269 41.2784 24.2474C41.2391 24.1877 41.2293 24.1181 41.1801 24.0684C41.1211 24.0186 41.0916 23.9391 41.0424 23.8794C40.9736 23.7998 40.8949 23.7402 40.8261 23.6606C40.7671 23.6009 40.6884 23.5313 40.6196 23.4816C40.5803 23.4518 40.5507 23.4219 40.5114 23.3921C40.4721 23.3722 40.4426 23.3523 40.4131 23.3225C40.3836 23.2827 40.3443 23.2429 40.3049 23.2131C40.2656 23.1832 40.2263 23.1633 40.1968 23.1335C40.1574 23.1037 40.1181 23.0838 40.0788 23.0539C40.0493 23.034 40.0296 23.0042 39.9903 22.9843C39.9214 22.9346 39.8526 22.8948 39.7838 22.8451C39.6559 22.7655 39.5084 22.686 39.3708 22.6462C39.302 22.6263 39.2233 22.5964 39.1545 22.5666C39.125 22.5566 39.0955 22.5368 39.066 22.5268C39.0168 22.5169 38.9774 22.5268 38.9283 22.5268C38.8693 22.5268 38.8103 22.5069 38.7513 22.5069C38.6923 22.5069 38.6333 22.5069 38.5841 22.5069C38.5546 22.5069 38.5153 22.5069 38.476 22.497C38.4366 22.497 38.4268 22.4771 38.3875 22.487C38.3186 22.5069 38.24 22.487 38.1711 22.487C38.122 22.487 38.0728 22.487 38.0236 22.487C38.0039 22.487 37.9843 22.487 37.9646 22.497C37.9154 22.497 37.8663 22.487 37.7975 22.497C37.6598 22.5268 37.5221 22.5467 37.3845 22.5865C37.0796 22.6561 36.8043 22.7357 36.5093 22.8351C35.7915 23.0738 35.0638 23.2926 34.3755 23.6009C34.1788 23.6805 33.992 23.77 33.7954 23.8496C33.6282 23.9192 33.4807 24.0286 33.3135 24.1181C33.3037 24.1181 33.284 24.138 33.2742 24.138H33.2349C33.1464 24.1778 33.0579 24.2076 32.9792 24.2474C32.9104 24.2872 32.8415 24.3269 32.7629 24.3667C32.6547 24.4264 32.5367 24.4662 32.4286 24.5159C32.3991 24.5358 32.3695 24.5557 32.34 24.5756C32.3105 24.5955 32.2811 24.6154 32.2417 24.6353C32.2221 24.6353 32.1729 24.6551 32.1532 24.675C32.1237 24.685 32.1041 24.7049 32.1139 24.7546C32.1237 24.7944 32.1434 24.8242 32.1335 24.864C32.1335 24.9237 32.1532 24.9834 32.163 25.043C32.1729 25.1326 32.222 25.232 32.2515 25.3215L32.3892 25.7492L32.6547 26.5647L32.7727 26.9227C32.7924 26.9923 32.8219 27.062 32.8415 27.1316C32.871 27.2111 32.9104 27.2808 32.93 27.3603C32.9792 27.4896 33.0382 27.609 33.0874 27.7283L33.1169 27.7781ZM40.0886 27.599C40.1968 27.9272 40.3049 28.3251 40.2361 28.6731C40.2164 28.7825 40.1378 28.8621 40.0984 28.9616C40.0591 29.061 40.0296 29.1804 40.0001 29.2898C39.9509 29.4688 39.8821 29.5981 39.7641 29.7373C39.7051 29.8169 39.6658 29.8964 39.6068 29.976C39.5871 29.976 39.5773 29.9859 39.5674 29.9959C39.5478 30.0158 39.5281 30.0456 39.5084 30.0655C39.4888 30.0854 39.4593 30.0953 39.4396 30.1152C39.4396 30.1152 39.4396 30.1351 39.4298 30.1451C39.4101 30.155 39.4003 30.165 39.3806 30.1849C39.3609 30.2047 39.3413 30.2247 39.3216 30.2346C39.2724 30.2744 39.2429 30.3141 39.1938 30.3639C39.0954 30.4534 39.0069 30.5429 38.8889 30.6125C38.8103 30.6523 38.7316 30.6921 38.6628 30.7418C38.6333 30.7716 38.6136 30.7915 38.5645 30.8114C38.5251 30.8313 38.4956 30.8413 38.4563 30.8611C38.3088 30.9308 38.1613 31.0004 38.0138 31.07C37.9253 31.1098 37.8466 31.1595 37.7483 31.1894C37.6696 31.2192 37.591 31.2391 37.5123 31.2689L37.1485 31.3883L36.9616 30.8114L36.0078 27.9272L35.6047 26.694C35.526 26.4653 35.408 26.1967 35.3588 25.9481L35.7423 25.8188L36.1553 25.6795C36.2143 25.6596 36.2635 25.6398 36.3225 25.6199C36.3913 25.59 36.47 25.6 36.5388 25.5801C36.6372 25.5502 36.7453 25.5304 36.8436 25.4906C36.8928 25.4707 36.9322 25.4707 36.9715 25.4607C37.0403 25.4508 37.0993 25.421 37.1583 25.4011C37.237 25.3712 37.3156 25.3613 37.3943 25.3414C37.4631 25.3215 37.5418 25.2817 37.6106 25.2718C37.6893 25.2618 37.768 25.2718 37.8466 25.2618C37.8761 25.2618 37.9155 25.2618 37.945 25.2618C37.9646 25.2618 37.9744 25.2618 37.9941 25.2618C38.0826 25.2618 38.1711 25.2618 38.2596 25.2618C38.4858 25.3215 38.6824 25.4607 38.8889 25.5602C39.2331 25.7193 39.5969 26.0973 39.7346 26.4652C39.8723 26.8332 39.9804 27.2112 40.0984 27.5791L40.0886 27.599Z" fill="#214082"/>
<path d="M44.2794 28.1063C44.3089 28.1958 44.3384 28.2754 44.3679 28.3649L44.5547 28.9318L44.7317 29.4589L44.8202 29.7175C44.8202 29.7175 44.8497 29.807 44.8694 29.8567C44.889 29.9263 44.9283 29.9761 44.948 30.0457C44.9578 30.0755 44.9677 30.1153 44.9775 30.1451C44.9972 30.1948 45.0267 30.2346 45.0463 30.2844C45.0758 30.354 45.1053 30.4236 45.1348 30.4932C45.1545 30.5628 45.184 30.6324 45.2233 30.6921C45.2233 30.712 45.243 30.7419 45.243 30.7617C45.2627 30.8314 45.2823 30.8711 45.3217 30.9308C45.3708 31.0004 45.3905 31.1098 45.4102 31.1894C45.4298 31.2491 45.4495 31.2789 45.479 31.3286C45.5085 31.3684 45.5183 31.4181 45.5282 31.4579C45.538 31.4878 45.5577 31.5176 45.5675 31.5375C45.6068 31.6668 45.6462 31.7961 45.715 31.9154C45.774 32.0149 45.8428 32.1044 45.8822 32.2038C45.9018 32.2536 45.9412 32.2934 45.9608 32.3431C45.9903 32.4127 46.0395 32.4525 46.069 32.5121C46.0887 32.5519 46.128 32.5817 46.1575 32.6315C46.187 32.6812 46.187 32.7309 46.2362 32.7707C46.2952 32.8304 46.3345 32.9 46.3836 32.9697C46.4033 32.9995 46.423 33.0293 46.4328 33.0592C46.4525 33.089 46.4623 33.1288 46.482 33.1487C46.5115 33.1785 46.541 33.1984 46.5607 33.2382C46.5902 33.2879 46.6098 33.3476 46.6393 33.3873C46.6688 33.4271 46.6983 33.447 46.718 33.4868C46.7377 33.5365 46.7573 33.5465 46.7868 33.5763C46.8163 33.6062 46.8163 33.6459 46.8458 33.6758C46.8753 33.7056 46.895 33.7255 46.9146 33.7653C46.9736 33.8548 47.0326 33.9642 47.1015 34.0537C47.1408 34.1034 47.1801 34.1531 47.2195 34.1929C47.2686 34.2526 47.2981 34.3222 47.3473 34.3719C47.4161 34.4515 47.485 34.5311 47.5341 34.6206C47.5538 34.6604 47.5931 34.6803 47.6226 34.72C47.6521 34.7499 47.6718 34.7897 47.7013 34.8195C47.8783 34.9886 48.0455 35.1875 48.2421 35.3367C48.2815 35.3665 48.3011 35.3963 48.3306 35.4361C48.3601 35.466 48.3995 35.4859 48.429 35.5057C48.4585 35.5256 48.4781 35.5455 48.4978 35.5754C48.5273 35.6052 48.5568 35.6152 48.5961 35.635C48.6846 35.6748 48.7436 35.7544 48.8321 35.7942C48.8813 35.8141 48.9206 35.824 48.9698 35.8439C49.0386 35.8837 49.1075 35.8936 49.1763 35.9235C49.255 35.9633 49.3336 36.013 49.4221 36.0329C49.4713 36.0428 49.5008 36.0627 49.5499 36.0826C49.5893 36.0925 49.6286 36.1025 49.668 36.1224C49.7368 36.1522 49.8056 36.1721 49.8744 36.2019C49.9039 36.2119 49.9433 36.2218 49.9728 36.2318C50.0219 36.2417 50.0613 36.2616 50.1104 36.2715C50.1498 36.2715 50.1891 36.3014 50.2284 36.3113C50.2776 36.3113 50.3268 36.3113 50.3759 36.3113C50.3956 36.3113 50.4054 36.3113 50.4251 36.3113C50.7398 36.3809 51.0741 36.361 51.3888 36.3312C51.4969 36.3213 51.6051 36.3312 51.7132 36.3312C51.7526 36.3312 51.7919 36.3312 51.8411 36.3312C51.8902 36.3312 51.9296 36.3312 51.9787 36.3312C52.0869 36.3213 52.1852 36.2914 52.2934 36.2815C52.4409 36.2616 52.5786 36.2318 52.7261 36.2019C52.8244 36.1821 52.9227 36.1422 53.0309 36.1124C53.1391 36.0925 53.2374 36.0428 53.3456 36.0229C53.5324 35.9831 53.7094 35.9036 53.8864 35.8439C54.0535 35.7842 54.2207 35.7345 54.3879 35.6748C54.437 35.6549 54.4567 35.6649 54.5059 35.6649C54.555 35.6649 54.5845 35.645 54.6337 35.635C54.7124 35.6052 54.791 35.5853 54.8697 35.5555L55.1647 35.456C55.1647 35.456 55.2532 35.4262 55.2925 35.4162C55.322 35.4063 55.3613 35.3964 55.3908 35.3864C55.44 35.3665 55.4695 35.3466 55.5187 35.3267C55.5383 35.3267 55.5482 35.3168 55.5679 35.3068C55.5679 35.3068 55.5678 35.3068 55.5777 35.3068C55.6072 35.2969 55.6367 35.2869 55.6564 35.277C55.7252 35.2372 55.7842 35.2173 55.8629 35.1875C55.8923 35.1775 55.9218 35.1477 55.9513 35.1378C55.9612 35.1378 55.9907 35.1378 56.0005 35.1278C56.0398 35.088 55.9808 34.9886 55.971 34.9388C55.9415 34.8394 55.9218 34.7399 55.8923 34.6405C55.8628 34.5211 55.8137 34.4117 55.7744 34.2924L55.5482 33.6161C55.5088 33.4968 55.4695 33.3774 55.4203 33.258C55.3908 33.1984 55.3712 33.1387 55.3318 33.089C55.2925 33.0194 55.263 32.9298 55.2335 32.8503C55.1942 32.7508 55.145 32.6613 55.0959 32.5718C55.0565 32.4922 55.0369 32.4027 54.9975 32.3232C54.9582 32.2436 54.8992 32.1939 54.8697 32.1143C54.85 32.0546 54.8304 31.995 54.8009 31.9353C54.7812 31.9055 54.7714 31.8756 54.7615 31.8458C54.7517 31.816 54.7517 31.7662 54.7222 31.7563C54.7124 31.7563 54.6239 31.7861 54.614 31.7961C54.5747 31.806 54.5452 31.816 54.5059 31.8358C54.4469 31.8557 54.3879 31.8856 54.3289 31.9154C54.2895 31.9254 54.2502 31.9353 54.2207 31.9552C54.1519 31.985 54.0929 32.0149 54.024 32.0447C53.9552 32.0745 53.8864 32.1044 53.8176 32.1342C53.7487 32.1541 53.6799 32.1839 53.611 32.2038C53.493 32.2436 53.3849 32.2834 53.2571 32.3033C53.1981 32.3132 53.1391 32.3232 53.0801 32.3431C52.9916 32.363 52.9129 32.4028 52.8146 32.4127C52.6867 32.4227 52.5491 32.4425 52.4212 32.4724C52.2934 32.5122 52.1656 32.542 52.0377 32.5619C51.9886 32.5718 51.9492 32.5619 51.9001 32.5619C51.8312 32.5619 51.7526 32.5718 51.6739 32.5818C51.5854 32.5917 51.4969 32.5917 51.4084 32.5917C51.3494 32.5818 51.2806 32.5619 51.2216 32.542C51.1528 32.5221 51.0937 32.4923 51.0249 32.4923C51.0052 32.4923 50.9954 32.4923 50.9758 32.4923C50.9659 32.4923 50.9462 32.4724 50.9364 32.4624C50.9167 32.4624 50.8873 32.4624 50.8676 32.4624C50.7988 32.4525 50.7594 32.3928 50.7004 32.363C50.6709 32.3431 50.6316 32.3331 50.6119 32.3132C50.5923 32.2934 50.5824 32.2834 50.5627 32.2635C50.5234 32.2337 50.4743 32.2138 50.4349 32.1939C50.4054 32.184 50.3759 32.1541 50.3563 32.1243C50.3366 32.1044 50.3366 32.0845 50.3169 32.0646C50.2973 32.0447 50.2579 32.0248 50.2383 32.0149C50.1793 31.985 50.1498 31.9353 50.1006 31.8955C50.0711 31.8657 50.0613 31.8359 50.0219 31.806C50.0023 31.7861 49.9826 31.7762 49.9629 31.7563C49.9236 31.7165 49.8744 31.6668 49.8351 31.617C49.8056 31.5773 49.7663 31.5375 49.727 31.4977C49.7073 31.4778 49.6975 31.4679 49.668 31.448C49.6385 31.4182 49.6384 31.3982 49.6188 31.3585C49.5991 31.3087 49.5499 31.2789 49.5303 31.2491C49.5106 31.2192 49.4909 31.1894 49.4713 31.1596C49.4319 31.0899 49.3729 31.0402 49.3434 30.9606C49.3139 30.901 49.2746 30.8512 49.2451 30.8015C49.1959 30.7418 49.1664 30.6623 49.1173 30.6125C49.0779 30.5628 49.0484 30.5131 49.0091 30.4634C48.9895 30.4236 48.9501 30.3938 48.9305 30.354C48.9108 30.3142 48.8813 30.2744 48.8714 30.2247C48.8518 30.175 48.842 30.1252 48.8223 30.0755C48.7928 30.0258 48.7633 29.986 48.7338 29.9363C48.7141 29.8865 48.7043 29.8368 48.6748 29.7871C48.6453 29.7373 48.6158 29.6976 48.5961 29.6379C48.5764 29.5882 48.5568 29.5385 48.5371 29.4887C48.4781 29.3594 48.429 29.2202 48.37 29.081C48.3503 29.0312 48.3306 28.9715 48.311 28.9218C48.2913 28.8721 48.2618 28.8323 48.2421 28.7826C48.1831 28.6135 48.1241 28.4345 48.075 28.2555L47.6718 27.0421C47.6423 26.9526 47.6128 26.8531 47.5833 26.7636C47.5636 26.7139 47.5636 26.6741 47.5636 26.6244C47.5636 26.5747 47.5341 26.5349 47.5243 26.4852C47.5145 26.4354 47.5145 26.3957 47.4948 26.3459C47.485 26.3062 47.4653 26.2664 47.4555 26.2266C47.4358 26.147 47.4358 26.0674 47.426 25.9879C47.4162 25.9282 47.3965 25.8686 47.3866 25.8188C47.3866 25.7691 47.3866 25.7193 47.3768 25.6696C47.367 25.6099 47.3768 25.5801 47.3768 25.5204C47.3768 25.4906 47.3768 25.4707 47.367 25.4409C47.367 25.3017 47.367 25.1724 47.3768 25.0331C47.3768 24.9337 47.3768 24.8839 47.4161 24.7845C47.4456 24.685 47.4358 24.6353 47.4456 24.5358C47.4555 24.4066 47.4948 24.2574 47.5341 24.138C47.6325 23.7899 47.78 23.4617 47.9373 23.1435C47.9766 23.0639 48.0356 22.9446 48.0946 22.8749C48.1536 22.8153 48.2126 22.8053 48.2716 22.7357C48.3798 22.6064 48.5076 22.507 48.6551 22.4274C48.96 22.2583 49.3139 22.1489 49.6188 21.9798C49.7663 21.9003 49.9236 21.8506 50.0711 21.7809C50.1891 21.7213 50.2874 21.6616 50.4153 21.6218C50.4743 21.6019 50.5628 21.592 50.6218 21.5522C50.6906 21.5124 50.7594 21.4627 50.8283 21.4129L51.2216 21.2837C51.2216 21.2837 51.3888 21.2538 51.3888 21.1941C51.3888 21.1742 51.3888 21.1643 51.3789 21.1544C51.3789 21.1345 51.3789 21.1146 51.3789 21.0947C51.3691 21.035 51.3396 20.9853 51.3199 20.9256C51.3003 20.856 51.2806 20.7764 51.2609 20.7068C51.2314 20.6074 51.1921 20.5178 51.1626 20.4184C51.1331 20.309 51.1036 20.1996 51.0741 20.0902C50.9856 19.8217 50.8971 19.5531 50.8086 19.2846C50.7692 19.1653 50.7103 19.0459 50.6709 18.9266C50.6414 18.8271 50.6119 18.7177 50.5627 18.6183C50.5431 18.5884 50.5234 18.5586 50.5038 18.5188C50.4841 18.479 50.4546 18.4691 50.4349 18.4293C50.4349 18.4193 50.4251 18.3895 50.4054 18.3895C50.3956 18.3895 50.3563 18.3995 50.3366 18.3995C50.3071 18.3995 50.2874 18.4094 50.2579 18.4194C50.2284 18.4194 50.1989 18.4193 50.1596 18.4293C50.0809 18.4591 49.9826 18.479 49.9039 18.4989C49.8548 18.5089 49.7958 18.5287 49.7466 18.5287C49.6974 18.5287 49.6483 18.5287 49.5991 18.5287C49.4909 18.5486 49.373 18.5884 49.2648 18.6083C49.1566 18.6382 49.0288 18.6481 48.9206 18.6879C48.8616 18.7078 48.8124 18.7078 48.7534 18.7078C48.6944 18.7078 48.6355 18.7277 48.5765 18.7376C48.3601 18.7774 48.1635 18.8371 47.957 18.9067C47.7013 18.9962 47.4555 19.0757 47.2097 19.1752C47.131 19.205 47.0523 19.2548 46.9736 19.2946C46.895 19.3344 46.7967 19.3542 46.718 19.404C46.6197 19.4736 46.5115 19.5233 46.4033 19.583C46.305 19.6327 46.1968 19.6824 46.0985 19.7322C46.0493 19.762 45.9903 19.7918 45.9412 19.8316C45.9018 19.8714 45.8625 19.9012 45.8133 19.9211C45.7445 19.951 45.6953 20.0007 45.6265 20.0305C45.597 20.0504 45.5675 20.0604 45.538 20.0802C45.4692 20.13 45.4003 20.1797 45.3315 20.2295C45.2922 20.2593 45.2627 20.309 45.2332 20.3488C45.1938 20.3687 45.1545 20.3886 45.125 20.4085C44.9775 20.5179 44.8792 20.677 44.771 20.8162C44.6629 20.9555 44.5744 21.1046 44.4662 21.2439C44.2499 21.5323 44.0925 21.8307 43.9253 22.1589C43.7287 22.5467 43.6304 22.9247 43.591 23.3523C43.5714 23.5413 43.5615 23.7402 43.5615 23.9292C43.5615 24.1579 43.6009 24.3867 43.6205 24.6254C43.6205 24.685 43.6402 24.7447 43.65 24.8044C43.65 24.8342 43.65 24.864 43.6599 24.8939C43.6599 24.9237 43.6599 24.9635 43.65 24.9933C43.65 25.0232 43.6402 25.053 43.65 25.0828C43.65 25.1027 43.6599 25.1226 43.6697 25.1326C43.6697 25.1624 43.6697 25.1724 43.6697 25.1923C43.6697 25.232 43.6697 25.2619 43.6697 25.3116C43.6697 25.4011 43.6697 25.4807 43.709 25.5602C43.7483 25.6696 43.7484 25.789 43.768 25.8984C43.768 25.9481 43.7779 25.9978 43.7877 26.0476C43.7877 26.0873 43.7877 26.1172 43.7877 26.157C43.7877 26.1968 43.8074 26.2266 43.8172 26.2664C43.8369 26.326 43.8467 26.3956 43.8565 26.4553C43.8664 26.5349 43.8959 26.6145 43.9155 26.704C43.945 26.8631 44.0237 27.0322 44.0729 27.1913C44.1024 27.2709 44.1417 27.3604 44.1515 27.4499C44.1515 27.5095 44.1515 27.5394 44.1712 27.5891C44.1908 27.6389 44.2105 27.6985 44.2302 27.7483C44.24 27.798 44.2499 27.8477 44.2597 27.8974C44.2794 27.9571 44.299 28.0168 44.3187 28.0665L44.2794 28.1063Z" fill="#214082"/>
</svg>
